<svg width="393" height="190" viewBox="0 0 393 190" fill="none" xmlns="http://www.w3.org/2000/svg">
<g clip-path="url(#clip0_113_5170)">
<g clip-path="url(#clip1_113_5170)">
<rect x="0.140625" y="0.46582" width="40.027" height="40.027" rx="20.0135" fill="#0A2D82"/>
<path fill-rule="evenodd" clip-rule="evenodd" d="M23.8094 13.1787C22.3306 13.1787 21.0131 13.9125 20.1541 15.055C19.2952 13.9125 17.9777 13.1787 16.4989 13.1787C13.9138 13.1787 11.8152 15.4191 11.8152 18.1821C11.8152 24.0388 20.1541 27.7802 20.1541 27.7802C20.1541 27.7802 28.4931 24.0388 28.4931 18.1821C28.4931 15.4191 26.3945 13.1787 23.8094 13.1787Z" fill="#FDFDFD"/>
</g>
</g>
<g clip-path="url(#clip2_113_5170)">
<g clip-path="url(#clip3_113_5170)">
<rect x="117.72" y="0.46582" width="40.027" height="40.027" rx="20.0135" fill="#0A2D82"/>
<rect x="117.72" y="0.46582" width="40.027" height="40.027" rx="2.50169" fill="black" fill-opacity="0.3"/>
<path fill-rule="evenodd" clip-rule="evenodd" d="M141.389 13.1787C139.91 13.1787 138.592 13.9125 137.733 15.055C136.875 13.9125 135.557 13.1787 134.078 13.1787C131.493 13.1787 129.395 15.4191 129.395 18.1821C129.395 24.0388 137.733 27.7802 137.733 27.7802C137.733 27.7802 146.072 24.0388 146.072 18.1821C146.072 15.4191 143.974 13.1787 141.389 13.1787Z" fill="#FDFDFD"/>
</g>
</g>
<g clip-path="url(#clip4_113_5170)">
<g clip-path="url(#clip5_113_5170)">
<rect x="235.299" y="1.2998" width="40.027" height="40.027" rx="20.0135" fill="#0A2D82"/>
<rect x="235.299" y="1.2998" width="40.027" height="40.027" rx="2.50169" fill="black" fill-opacity="0.3"/>
<path fill-rule="evenodd" clip-rule="evenodd" d="M258.968 14.0127C257.489 14.0127 256.172 14.7465 255.313 15.889C254.454 14.7465 253.136 14.0127 251.658 14.0127C249.073 14.0127 246.974 16.2531 246.974 19.0161C246.974 24.8728 255.313 28.6142 255.313 28.6142C255.313 28.6142 263.652 24.8728 263.652 19.0161C263.652 16.2531 261.553 14.0127 258.968 14.0127Z" fill="#FDFDFD"/>
</g>
</g>
<g opacity="0.5">
<g clip-path="url(#clip6_113_5170)">
<g clip-path="url(#clip7_113_5170)">
<rect x="352.878" y="0.46582" width="40.027" height="40.027" rx="3.33558" fill="#0A2D82"/>
<path fill-rule="evenodd" clip-rule="evenodd" d="M376.547 13.1787C375.068 13.1787 373.751 13.9125 372.892 15.055C372.033 13.9125 370.715 13.1787 369.237 13.1787C366.652 13.1787 364.553 15.4191 364.553 18.1821C364.553 24.0388 372.892 27.7802 372.892 27.7802C372.892 27.7802 381.231 24.0388 381.231 18.1821C381.231 15.4191 379.132 13.1787 376.547 13.1787Z" fill="#FDFDFD"/>
</g>
</g>
</g>
<g clip-path="url(#clip8_113_5170)">
<g clip-path="url(#clip9_113_5170)">
<path fill-rule="evenodd" clip-rule="evenodd" d="M23.8096 87.3955C22.3309 87.3955 21.0133 88.1293 20.1544 89.2718C19.2955 88.1293 17.9779 87.3955 16.4991 87.3955C13.9141 87.3955 11.8154 89.6359 11.8154 92.3989C11.8154 98.2556 20.1544 101.997 20.1544 101.997C20.1544 101.997 28.4933 98.2556 28.4933 92.3989C28.4933 89.6359 26.3947 87.3955 23.8096 87.3955Z" fill="#333333"/>
</g>
<rect x="0.974521" y="75.5165" width="38.3592" height="38.3592" rx="19.1796" stroke="#0A2D82" stroke-width="1.66779"/>
</g>
<g clip-path="url(#clip10_113_5170)">
<g clip-path="url(#clip11_113_5170)">
<rect x="117.72" y="74.6826" width="40.027" height="40.027" rx="20.0135" fill="#0A2D82" fill-opacity="0.1"/>
<path fill-rule="evenodd" clip-rule="evenodd" d="M141.389 87.3955C139.91 87.3955 138.593 88.1293 137.734 89.2718C136.875 88.1293 135.557 87.3955 134.078 87.3955C131.493 87.3955 129.395 89.6359 129.395 92.3989C129.395 98.2556 137.734 101.997 137.734 101.997C137.734 101.997 146.073 98.2556 146.073 92.3989C146.073 89.6359 143.974 87.3955 141.389 87.3955Z" fill="#0A2D82"/>
</g>
<rect x="118.554" y="75.5165" width="38.3592" height="38.3592" rx="19.1796" stroke="#0A2D82" stroke-width="1.66779"/>
</g>
<g clip-path="url(#clip12_113_5170)">
<g clip-path="url(#clip13_113_5170)">
<rect x="235.299" y="75.5166" width="40.027" height="40.027" rx="20.0135" fill="#0A2D82" fill-opacity="0.1"/>
<path fill-rule="evenodd" clip-rule="evenodd" d="M258.968 88.2295C257.49 88.2295 256.172 88.9633 255.313 90.1058C254.454 88.9633 253.137 88.2295 251.658 88.2295C249.073 88.2295 246.974 90.4699 246.974 93.2329C246.974 99.0896 255.313 102.831 255.313 102.831C255.313 102.831 263.652 99.0896 263.652 93.2329C263.652 90.4699 261.553 88.2295 258.968 88.2295Z" fill="#0A2D82"/>
</g>
<rect x="236.133" y="76.3505" width="38.3592" height="38.3592" rx="19.1796" stroke="#0A2D82" stroke-width="1.66779"/>
</g>
<g opacity="0.5">
<g clip-path="url(#clip14_113_5170)">
<g clip-path="url(#clip15_113_5170)">
<path fill-rule="evenodd" clip-rule="evenodd" d="M376.547 87.3955C375.069 87.3955 373.751 88.1293 372.892 89.2718C372.033 88.1293 370.716 87.3955 369.237 87.3955C366.652 87.3955 364.553 89.6359 364.553 92.3989C364.553 98.2556 372.892 101.997 372.892 101.997C372.892 101.997 381.231 98.2556 381.231 92.3989C381.231 89.6359 379.133 87.3955 376.547 87.3955Z" fill="#333333"/>
</g>
</g>
<rect x="353.878" y="75.6826" width="38.027" height="38.027" rx="19.0135" stroke="#0A2D82" stroke-width="2"/>
</g>
<g clip-path="url(#clip16_113_5170)">
<g clip-path="url(#clip17_113_5170)">
<path fill-rule="evenodd" clip-rule="evenodd" d="M23.8096 161.612C22.3309 161.612 21.0133 162.346 20.1544 163.489C19.2955 162.346 17.9779 161.612 16.4991 161.612C13.9141 161.612 11.8154 163.853 11.8154 166.616C11.8154 172.472 20.1544 176.214 20.1544 176.214C20.1544 176.214 28.4933 172.472 28.4933 166.616C28.4933 163.853 26.3947 161.612 23.8096 161.612Z" fill="#D40C31"/>
</g>
<rect x="0.974521" y="149.733" width="38.3592" height="38.3592" rx="19.1796" stroke="#D40C31" stroke-width="1.66779"/>
</g>
<g clip-path="url(#clip18_113_5170)">
<g clip-path="url(#clip19_113_5170)">
<rect x="117.72" y="148.899" width="40.027" height="40.027" rx="20.0135" fill="#D40C31" fill-opacity="0.1"/>
<path fill-rule="evenodd" clip-rule="evenodd" d="M141.389 161.612C139.91 161.612 138.593 162.346 137.734 163.489C136.875 162.346 135.557 161.612 134.078 161.612C131.493 161.612 129.395 163.853 129.395 166.616C129.395 172.472 137.734 176.214 137.734 176.214C137.734 176.214 146.073 172.472 146.073 166.616C146.073 163.853 143.974 161.612 141.389 161.612Z" fill="#D40C31"/>
</g>
<rect x="118.554" y="149.733" width="38.3592" height="38.3592" rx="19.1796" stroke="#D40C31" stroke-width="1.66779"/>
</g>
<g clip-path="url(#clip20_113_5170)">
<g clip-path="url(#clip21_113_5170)">
<rect x="235.299" y="149.733" width="40.027" height="40.027" rx="20.0135" fill="#D40C31" fill-opacity="0.1"/>
<path fill-rule="evenodd" clip-rule="evenodd" d="M258.968 162.446C257.49 162.446 256.172 163.18 255.313 164.323C254.454 163.18 253.137 162.446 251.658 162.446C249.073 162.446 246.974 164.687 246.974 167.45C246.974 173.306 255.313 177.048 255.313 177.048C255.313 177.048 263.652 173.306 263.652 167.45C263.652 164.687 261.553 162.446 258.968 162.446Z" fill="#D40C31"/>
</g>
<rect x="236.133" y="150.567" width="38.3592" height="38.3592" rx="19.1796" stroke="#D40C31" stroke-width="1.66779"/>
</g>
<g opacity="0.5">
<g clip-path="url(#clip22_113_5170)">
<rect x="352.878" y="148.899" width="40.027" height="40.027" rx="20.0135" fill="#FDFDFD"/>
<g clip-path="url(#clip23_113_5170)">
<path fill-rule="evenodd" clip-rule="evenodd" d="M376.547 161.612C375.068 161.612 373.751 162.346 372.892 163.489C372.033 162.346 370.715 161.612 369.237 161.612C366.652 161.612 364.553 163.853 364.553 166.616C364.553 172.472 372.892 176.214 372.892 176.214C372.892 176.214 381.231 172.472 381.231 166.616C381.231 163.853 379.132 161.612 376.547 161.612Z" fill="#D40C31"/>
</g>
</g>
<rect x="353.878" y="149.899" width="38.027" height="38.027" rx="19.0135" stroke="#D40C31" stroke-opacity="0.6" stroke-width="2"/>
</g>
<defs>
<clipPath id="clip0_113_5170">
<rect x="0.140625" y="0.46582" width="40.027" height="40.8609" rx="20.0135" fill="white"/>
</clipPath>
<clipPath id="clip1_113_5170">
<rect x="0.140625" y="0.46582" width="40.027" height="40.027" rx="20.0135" fill="white"/>
</clipPath>
<clipPath id="clip2_113_5170">
<rect x="117.72" y="0.46582" width="40.027" height="40.8609" rx="20.0135" fill="white"/>
</clipPath>
<clipPath id="clip3_113_5170">
<rect x="117.72" y="0.46582" width="40.027" height="40.027" rx="20.0135" fill="white"/>
</clipPath>
<clipPath id="clip4_113_5170">
<path d="M235.299 20.4793C235.299 9.42618 244.26 0.46582 255.313 0.46582C266.366 0.46582 275.326 9.42617 275.326 20.4793V21.3132C275.326 32.3664 266.366 41.3267 255.313 41.3267C244.26 41.3267 235.299 32.3664 235.299 21.3132V20.4793Z" fill="white"/>
</clipPath>
<clipPath id="clip5_113_5170">
<rect x="235.299" y="1.2998" width="40.027" height="40.027" rx="20.0135" fill="white"/>
</clipPath>
<clipPath id="clip6_113_5170">
<rect x="352.878" y="0.46582" width="40.027" height="40.027" rx="20.0135" fill="white"/>
</clipPath>
<clipPath id="clip7_113_5170">
<rect x="352.878" y="0.46582" width="40.027" height="40.027" rx="3.33558" fill="white"/>
</clipPath>
<clipPath id="clip8_113_5170">
<rect x="0.140625" y="74.6826" width="40.027" height="40.8609" rx="20.0135" fill="white"/>
</clipPath>
<clipPath id="clip9_113_5170">
<rect x="0.140625" y="74.6826" width="40.027" height="40.027" rx="20.0135" fill="white"/>
</clipPath>
<clipPath id="clip10_113_5170">
<rect x="117.72" y="74.6826" width="40.027" height="40.8609" rx="20.0135" fill="white"/>
</clipPath>
<clipPath id="clip11_113_5170">
<rect x="117.72" y="74.6826" width="40.027" height="40.027" rx="20.0135" fill="white"/>
</clipPath>
<clipPath id="clip12_113_5170">
<rect x="235.299" y="74.6826" width="40.027" height="40.8609" rx="20.0135" fill="white"/>
</clipPath>
<clipPath id="clip13_113_5170">
<rect x="235.299" y="75.5166" width="40.027" height="40.027" rx="20.0135" fill="white"/>
</clipPath>
<clipPath id="clip14_113_5170">
<rect x="352.878" y="74.6826" width="40.027" height="40.027" rx="20.0135" fill="white"/>
</clipPath>
<clipPath id="clip15_113_5170">
<rect x="352.878" y="74.6826" width="40.027" height="40.027" rx="3.33558" fill="white"/>
</clipPath>
<clipPath id="clip16_113_5170">
<rect x="0.140625" y="148.899" width="40.027" height="40.8609" rx="20.0135" fill="white"/>
</clipPath>
<clipPath id="clip17_113_5170">
<rect x="0.140625" y="148.899" width="40.027" height="40.027" rx="20.0135" fill="white"/>
</clipPath>
<clipPath id="clip18_113_5170">
<rect x="117.72" y="148.899" width="40.027" height="40.8609" rx="20.0135" fill="white"/>
</clipPath>
<clipPath id="clip19_113_5170">
<rect x="117.72" y="148.899" width="40.027" height="40.027" rx="20.0135" fill="white"/>
</clipPath>
<clipPath id="clip20_113_5170">
<rect x="235.299" y="148.899" width="40.027" height="40.8609" rx="20.0135" fill="white"/>
</clipPath>
<clipPath id="clip21_113_5170">
<rect x="235.299" y="149.733" width="40.027" height="40.027" rx="20.0135" fill="white"/>
</clipPath>
<clipPath id="clip22_113_5170">
<rect x="352.878" y="148.899" width="40.027" height="40.027" rx="20.0135" fill="white"/>
</clipPath>
<clipPath id="clip23_113_5170">
<rect x="352.878" y="148.899" width="40.027" height="40.027" rx="3.33558" fill="white"/>
</clipPath>
</defs>
</svg>
