<svg width="61" height="55" viewBox="0 0 61 55" fill="none" xmlns="http://www.w3.org/2000/svg">
<path d="M8.75898 22.1443L11.0242 23.7901C13.0306 25.2478 15.0277 25.7429 17.0155 25.2753C19.0248 24.8234 20.8603 23.4541 22.5217 21.1673C23.9324 19.2256 24.5108 17.2726 24.257 15.3082C24.0188 13.3223 22.8965 11.6005 20.8902 10.1428L18.6573 8.52047L8.75898 22.1443ZM16.5302 0.695859L24.0379 6.15051C27.3171 8.533 29.2664 11.4984 29.8857 15.0468C30.5206 18.5735 29.7487 21.8363 27.57 24.835C25.0308 28.33 21.9968 30.3283 18.468 30.8299C14.9607 31.3472 11.5136 30.3754 8.12651 27.9146L0.683549 22.507L16.5302 0.695859ZM43.757 20.9717L47.4461 23.652L43.9862 32.9056C43.2636 34.8527 42.5656 36.6529 41.8919 38.306C41.2555 39.9532 40.7904 41.115 40.4967 41.7916L40.056 42.8064C41.7315 41.0901 44.3654 38.7351 47.9577 35.7416L55.7714 29.2062L60.852 32.8975L39.1804 50.4765L33.6143 46.4326L36.713 38.1526C37.4669 36.1622 38.1081 34.4856 38.6369 33.1228C39.1871 31.7756 39.5475 30.9167 39.7179 30.5461L40.0058 30.0137C39.2984 30.8512 37.0466 32.7256 33.2504 35.6369L26.2361 41.072L20.6701 37.028L30.6595 10.9613L35.9019 14.7702L32.0774 24.2534C31.255 26.2927 30.4746 28.1155 29.7362 29.7215C29.0135 31.306 28.4886 32.3914 28.1614 32.9778L27.7266 33.8485C29.316 32.4322 32.0714 30.1821 35.9931 27.0982L43.757 20.9717Z" fill="white"/>
</svg>
