<svg width="540" height="350" viewBox="0 0 540 350" fill="none" xmlns="http://www.w3.org/2000/svg">
<g clip-path="url(#clip0_285_6654)">
<g clip-path="url(#clip1_285_6654)">
<path d="M34 328.927V319.127H38.592C39.768 319.127 40.664 319.36 41.28 319.827C41.896 320.284 42.204 320.9 42.204 321.675C42.204 322.198 42.0827 322.646 41.84 323.019C41.5973 323.383 41.2707 323.668 40.86 323.873C40.4587 324.069 40.02 324.167 39.544 324.167L39.796 323.663C40.3467 323.663 40.8413 323.766 41.28 323.971C41.7187 324.167 42.064 324.456 42.316 324.839C42.5773 325.222 42.708 325.698 42.708 326.267C42.708 327.107 42.386 327.76 41.742 328.227C41.098 328.694 40.1413 328.927 38.872 328.927H34ZM35.82 327.499H38.76C39.4413 327.499 39.964 327.387 40.328 327.163C40.692 326.939 40.874 326.58 40.874 326.085C40.874 325.6 40.692 325.245 40.328 325.021C39.964 324.788 39.4413 324.671 38.76 324.671H35.68V323.257H38.396C39.0307 323.257 39.516 323.145 39.852 322.921C40.1973 322.697 40.37 322.361 40.37 321.913C40.37 321.456 40.1973 321.115 39.852 320.891C39.516 320.667 39.0307 320.555 38.396 320.555H35.82V327.499ZM47.8424 329.025C47.0771 329.025 46.3957 328.862 45.7984 328.535C45.2011 328.199 44.7297 327.742 44.3844 327.163C44.0391 326.584 43.8664 325.926 43.8664 325.189C43.8664 324.442 44.0391 323.784 44.3844 323.215C44.7297 322.636 45.2011 322.184 45.7984 321.857C46.3957 321.53 47.0771 321.367 47.8424 321.367C48.6171 321.367 49.3031 321.53 49.9004 321.857C50.5071 322.184 50.9784 322.632 51.3144 323.201C51.6597 323.77 51.8324 324.433 51.8324 325.189C51.8324 325.926 51.6597 326.584 51.3144 327.163C50.9784 327.742 50.5071 328.199 49.9004 328.535C49.3031 328.862 48.6171 329.025 47.8424 329.025ZM47.8424 327.527C48.2717 327.527 48.6544 327.434 48.9904 327.247C49.3264 327.06 49.5877 326.79 49.7744 326.435C49.9704 326.08 50.0684 325.665 50.0684 325.189C50.0684 324.704 49.9704 324.288 49.7744 323.943C49.5877 323.588 49.3264 323.318 48.9904 323.131C48.6544 322.944 48.2764 322.851 47.8564 322.851C47.4271 322.851 47.0444 322.944 46.7084 323.131C46.3817 323.318 46.1204 323.588 45.9244 323.943C45.7284 324.288 45.6304 324.704 45.6304 325.189C45.6304 325.665 45.7284 326.08 45.9244 326.435C46.1204 326.79 46.3817 327.06 46.7084 327.247C47.0444 327.434 47.4224 327.527 47.8424 327.527ZM56.6698 329.025C56.0352 329.025 55.4752 328.908 54.9898 328.675C54.5045 328.432 54.1265 328.068 53.8558 327.583C53.5852 327.088 53.4498 326.468 53.4498 325.721V321.451H55.1998V325.483C55.1998 326.155 55.3492 326.659 55.6478 326.995C55.9558 327.322 56.3898 327.485 56.9498 327.485C57.3605 327.485 57.7152 327.401 58.0138 327.233C58.3218 327.065 58.5598 326.813 58.7278 326.477C58.9052 326.141 58.9938 325.726 58.9938 325.231V321.451H60.7438V328.927H59.0778V326.911L59.3718 327.527C59.1198 328.012 58.7512 328.386 58.2658 328.647C57.7805 328.899 57.2485 329.025 56.6698 329.025ZM65.8491 329.025C65.0278 329.025 64.3931 328.815 63.9451 328.395C63.4971 327.966 63.2731 327.336 63.2731 326.505V319.799H65.0231V326.463C65.0231 326.818 65.1118 327.093 65.2891 327.289C65.4758 327.485 65.7325 327.583 66.0591 327.583C66.4511 327.583 66.7778 327.48 67.0391 327.275L67.5291 328.521C67.3238 328.689 67.0718 328.815 66.7731 328.899C66.4745 328.983 66.1665 329.025 65.8491 329.025ZM62.0411 322.907V321.507H67.0251V322.907H62.0411ZM72.0826 329.025C71.3173 329.025 70.636 328.862 70.0386 328.535C69.4413 328.199 68.97 327.742 68.6246 327.163C68.2793 326.584 68.1066 325.926 68.1066 325.189C68.1066 324.442 68.2793 323.784 68.6246 323.215C68.97 322.636 69.4413 322.184 70.0386 321.857C70.636 321.53 71.3173 321.367 72.0826 321.367C72.8573 321.367 73.5433 321.53 74.1406 321.857C74.7473 322.184 75.2186 322.632 75.5546 323.201C75.9 323.77 76.0726 324.433 76.0726 325.189C76.0726 325.926 75.9 326.584 75.5546 327.163C75.2186 327.742 74.7473 328.199 74.1406 328.535C73.5433 328.862 72.8573 329.025 72.0826 329.025ZM72.0826 327.527C72.512 327.527 72.8946 327.434 73.2306 327.247C73.5666 327.06 73.828 326.79 74.0146 326.435C74.2106 326.08 74.3086 325.665 74.3086 325.189C74.3086 324.704 74.2106 324.288 74.0146 323.943C73.828 323.588 73.5666 323.318 73.2306 323.131C72.8946 322.944 72.5166 322.851 72.0966 322.851C71.6673 322.851 71.2846 322.944 70.9486 323.131C70.622 323.318 70.3606 323.588 70.1646 323.943C69.9686 324.288 69.8706 324.704 69.8706 325.189C69.8706 325.665 69.9686 326.08 70.1646 326.435C70.3606 326.79 70.622 327.06 70.9486 327.247C71.2846 327.434 71.6626 327.527 72.0826 327.527ZM81.9881 321.367C82.5854 321.367 83.1174 321.484 83.5841 321.717C84.0601 321.95 84.4334 322.31 84.7041 322.795C84.9747 323.271 85.1101 323.887 85.1101 324.643V328.927H83.3601V324.867C83.3601 324.204 83.2014 323.71 82.8841 323.383C82.5761 323.056 82.1421 322.893 81.5821 322.893C81.1714 322.893 80.8074 322.977 80.4901 323.145C80.1727 323.313 79.9254 323.565 79.7481 323.901C79.5801 324.228 79.4961 324.643 79.4961 325.147V328.927H77.7461V321.451H79.4121V323.467L79.1181 322.851C79.3794 322.375 79.7574 322.011 80.2521 321.759C80.7561 321.498 81.3347 321.367 81.9881 321.367Z" fill="#D40C31"/>
</g>
<rect x="15" y="301.076" width="89.1101" height="46" rx="3" stroke="#D40C31" stroke-width="2"/>
</g>
<g clip-path="url(#clip2_285_6654)">
<g clip-path="url(#clip3_285_6654)">
<rect x="154.11" y="300.076" width="91.1101" height="48" rx="4" fill="#D40C31" fill-opacity="0.1"/>
<path d="M174.11 328.927V319.127H178.702C179.878 319.127 180.774 319.36 181.39 319.827C182.006 320.284 182.314 320.9 182.314 321.675C182.314 322.198 182.193 322.646 181.95 323.019C181.707 323.383 181.381 323.668 180.97 323.873C180.569 324.069 180.13 324.167 179.654 324.167L179.906 323.663C180.457 323.663 180.951 323.766 181.39 323.971C181.829 324.167 182.174 324.456 182.426 324.839C182.687 325.222 182.818 325.698 182.818 326.267C182.818 327.107 182.496 327.76 181.852 328.227C181.208 328.694 180.251 328.927 178.982 328.927H174.11ZM175.93 327.499H178.87C179.551 327.499 180.074 327.387 180.438 327.163C180.802 326.939 180.984 326.58 180.984 326.085C180.984 325.6 180.802 325.245 180.438 325.021C180.074 324.788 179.551 324.671 178.87 324.671H175.79V323.257H178.506C179.141 323.257 179.626 323.145 179.962 322.921C180.307 322.697 180.48 322.361 180.48 321.913C180.48 321.456 180.307 321.115 179.962 320.891C179.626 320.667 179.141 320.555 178.506 320.555H175.93V327.499ZM187.952 329.025C187.187 329.025 186.506 328.862 185.908 328.535C185.311 328.199 184.84 327.742 184.494 327.163C184.149 326.584 183.976 325.926 183.976 325.189C183.976 324.442 184.149 323.784 184.494 323.215C184.84 322.636 185.311 322.184 185.908 321.857C186.506 321.53 187.187 321.367 187.952 321.367C188.727 321.367 189.413 321.53 190.01 321.857C190.617 322.184 191.088 322.632 191.424 323.201C191.77 323.77 191.942 324.433 191.942 325.189C191.942 325.926 191.77 326.584 191.424 327.163C191.088 327.742 190.617 328.199 190.01 328.535C189.413 328.862 188.727 329.025 187.952 329.025ZM187.952 327.527C188.382 327.527 188.764 327.434 189.1 327.247C189.436 327.06 189.698 326.79 189.884 326.435C190.08 326.08 190.178 325.665 190.178 325.189C190.178 324.704 190.08 324.288 189.884 323.943C189.698 323.588 189.436 323.318 189.1 323.131C188.764 322.944 188.386 322.851 187.966 322.851C187.537 322.851 187.154 322.944 186.818 323.131C186.492 323.318 186.23 323.588 186.034 323.943C185.838 324.288 185.74 324.704 185.74 325.189C185.74 325.665 185.838 326.08 186.034 326.435C186.23 326.79 186.492 327.06 186.818 327.247C187.154 327.434 187.532 327.527 187.952 327.527ZM196.78 329.025C196.145 329.025 195.585 328.908 195.1 328.675C194.614 328.432 194.236 328.068 193.966 327.583C193.695 327.088 193.56 326.468 193.56 325.721V321.451H195.31V325.483C195.31 326.155 195.459 326.659 195.758 326.995C196.066 327.322 196.5 327.485 197.06 327.485C197.47 327.485 197.825 327.401 198.124 327.233C198.432 327.065 198.67 326.813 198.838 326.477C199.015 326.141 199.104 325.726 199.104 325.231V321.451H200.854V328.927H199.188V326.911L199.482 327.527C199.23 328.012 198.861 328.386 198.376 328.647C197.89 328.899 197.358 329.025 196.78 329.025ZM205.959 329.025C205.138 329.025 204.503 328.815 204.055 328.395C203.607 327.966 203.383 327.336 203.383 326.505V319.799H205.133V326.463C205.133 326.818 205.222 327.093 205.399 327.289C205.586 327.485 205.842 327.583 206.169 327.583C206.561 327.583 206.888 327.48 207.149 327.275L207.639 328.521C207.434 328.689 207.182 328.815 206.883 328.899C206.584 328.983 206.276 329.025 205.959 329.025ZM202.151 322.907V321.507H207.135V322.907H202.151ZM212.192 329.025C211.427 329.025 210.746 328.862 210.148 328.535C209.551 328.199 209.08 327.742 208.734 327.163C208.389 326.584 208.216 325.926 208.216 325.189C208.216 324.442 208.389 323.784 208.734 323.215C209.08 322.636 209.551 322.184 210.148 321.857C210.746 321.53 211.427 321.367 212.192 321.367C212.967 321.367 213.653 321.53 214.25 321.857C214.857 322.184 215.328 322.632 215.664 323.201C216.01 323.77 216.182 324.433 216.182 325.189C216.182 325.926 216.01 326.584 215.664 327.163C215.328 327.742 214.857 328.199 214.25 328.535C213.653 328.862 212.967 329.025 212.192 329.025ZM212.192 327.527C212.622 327.527 213.004 327.434 213.34 327.247C213.676 327.06 213.938 326.79 214.124 326.435C214.32 326.08 214.418 325.665 214.418 325.189C214.418 324.704 214.32 324.288 214.124 323.943C213.938 323.588 213.676 323.318 213.34 323.131C213.004 322.944 212.626 322.851 212.206 322.851C211.777 322.851 211.394 322.944 211.058 323.131C210.732 323.318 210.47 323.588 210.274 323.943C210.078 324.288 209.98 324.704 209.98 325.189C209.98 325.665 210.078 326.08 210.274 326.435C210.47 326.79 210.732 327.06 211.058 327.247C211.394 327.434 211.772 327.527 212.192 327.527ZM222.098 321.367C222.695 321.367 223.227 321.484 223.694 321.717C224.17 321.95 224.543 322.31 224.814 322.795C225.085 323.271 225.22 323.887 225.22 324.643V328.927H223.47V324.867C223.47 324.204 223.311 323.71 222.994 323.383C222.686 323.056 222.252 322.893 221.692 322.893C221.281 322.893 220.917 322.977 220.6 323.145C220.283 323.313 220.035 323.565 219.858 323.901C219.69 324.228 219.606 324.643 219.606 325.147V328.927H217.856V321.451H219.522V323.467L219.228 322.851C219.489 322.375 219.867 322.011 220.362 321.759C220.866 321.498 221.445 321.367 222.098 321.367Z" fill="#D40C31"/>
</g>
<rect x="155.11" y="301.076" width="89.1101" height="46" rx="3" stroke="#D40C31" stroke-width="2"/>
</g>
<g clip-path="url(#clip4_285_6654)">
<g clip-path="url(#clip5_285_6654)">
<rect x="294.22" y="301.076" width="91.1101" height="48" rx="4" fill="#D40C31" fill-opacity="0.1"/>
<path d="M314.22 329.927V320.127H318.812C319.988 320.127 320.884 320.36 321.5 320.827C322.116 321.284 322.424 321.9 322.424 322.675C322.424 323.198 322.303 323.646 322.06 324.019C321.818 324.383 321.491 324.668 321.08 324.873C320.679 325.069 320.24 325.167 319.764 325.167L320.016 324.663C320.567 324.663 321.062 324.766 321.5 324.971C321.939 325.167 322.284 325.456 322.536 325.839C322.798 326.222 322.928 326.698 322.928 327.267C322.928 328.107 322.606 328.76 321.962 329.227C321.318 329.694 320.362 329.927 319.092 329.927H314.22ZM316.04 328.499H318.98C319.662 328.499 320.184 328.387 320.548 328.163C320.912 327.939 321.094 327.58 321.094 327.085C321.094 326.6 320.912 326.245 320.548 326.021C320.184 325.788 319.662 325.671 318.98 325.671H315.9V324.257H318.616C319.251 324.257 319.736 324.145 320.072 323.921C320.418 323.697 320.59 323.361 320.59 322.913C320.59 322.456 320.418 322.115 320.072 321.891C319.736 321.667 319.251 321.555 318.616 321.555H316.04V328.499ZM328.063 330.025C327.297 330.025 326.616 329.862 326.019 329.535C325.421 329.199 324.95 328.742 324.605 328.163C324.259 327.584 324.087 326.926 324.087 326.189C324.087 325.442 324.259 324.784 324.605 324.215C324.95 323.636 325.421 323.184 326.019 322.857C326.616 322.53 327.297 322.367 328.063 322.367C328.837 322.367 329.523 322.53 330.121 322.857C330.727 323.184 331.199 323.632 331.535 324.201C331.88 324.77 332.053 325.433 332.053 326.189C332.053 326.926 331.88 327.584 331.535 328.163C331.199 328.742 330.727 329.199 330.121 329.535C329.523 329.862 328.837 330.025 328.063 330.025ZM328.063 328.527C328.492 328.527 328.875 328.434 329.211 328.247C329.547 328.06 329.808 327.79 329.995 327.435C330.191 327.08 330.289 326.665 330.289 326.189C330.289 325.704 330.191 325.288 329.995 324.943C329.808 324.588 329.547 324.318 329.211 324.131C328.875 323.944 328.497 323.851 328.077 323.851C327.647 323.851 327.265 323.944 326.929 324.131C326.602 324.318 326.341 324.588 326.145 324.943C325.949 325.288 325.851 325.704 325.851 326.189C325.851 326.665 325.949 327.08 326.145 327.435C326.341 327.79 326.602 328.06 326.929 328.247C327.265 328.434 327.643 328.527 328.063 328.527ZM336.89 330.025C336.255 330.025 335.695 329.908 335.21 329.675C334.725 329.432 334.347 329.068 334.076 328.583C333.805 328.088 333.67 327.468 333.67 326.721V322.451H335.42V326.483C335.42 327.155 335.569 327.659 335.868 327.995C336.176 328.322 336.61 328.485 337.17 328.485C337.581 328.485 337.935 328.401 338.234 328.233C338.542 328.065 338.78 327.813 338.948 327.477C339.125 327.141 339.214 326.726 339.214 326.231V322.451H340.964V329.927H339.298V327.911L339.592 328.527C339.34 329.012 338.971 329.386 338.486 329.647C338.001 329.899 337.469 330.025 336.89 330.025ZM346.069 330.025C345.248 330.025 344.613 329.815 344.165 329.395C343.717 328.966 343.493 328.336 343.493 327.505V320.799H345.243V327.463C345.243 327.818 345.332 328.093 345.509 328.289C345.696 328.485 345.953 328.583 346.279 328.583C346.671 328.583 346.998 328.48 347.259 328.275L347.749 329.521C347.544 329.689 347.292 329.815 346.993 329.899C346.695 329.983 346.387 330.025 346.069 330.025ZM342.261 323.907V322.507H347.245V323.907H342.261ZM352.303 330.025C351.538 330.025 350.856 329.862 350.259 329.535C349.662 329.199 349.19 328.742 348.845 328.163C348.5 327.584 348.327 326.926 348.327 326.189C348.327 325.442 348.5 324.784 348.845 324.215C349.19 323.636 349.662 323.184 350.259 322.857C350.856 322.53 351.538 322.367 352.303 322.367C353.078 322.367 353.764 322.53 354.361 322.857C354.968 323.184 355.439 323.632 355.775 324.201C356.12 324.77 356.293 325.433 356.293 326.189C356.293 326.926 356.12 327.584 355.775 328.163C355.439 328.742 354.968 329.199 354.361 329.535C353.764 329.862 353.078 330.025 352.303 330.025ZM352.303 328.527C352.732 328.527 353.115 328.434 353.451 328.247C353.787 328.06 354.048 327.79 354.235 327.435C354.431 327.08 354.529 326.665 354.529 326.189C354.529 325.704 354.431 325.288 354.235 324.943C354.048 324.588 353.787 324.318 353.451 324.131C353.115 323.944 352.737 323.851 352.317 323.851C351.888 323.851 351.505 323.944 351.169 324.131C350.842 324.318 350.581 324.588 350.385 324.943C350.189 325.288 350.091 325.704 350.091 326.189C350.091 326.665 350.189 327.08 350.385 327.435C350.581 327.79 350.842 328.06 351.169 328.247C351.505 328.434 351.883 328.527 352.303 328.527ZM362.208 322.367C362.806 322.367 363.338 322.484 363.804 322.717C364.28 322.95 364.654 323.31 364.924 323.795C365.195 324.271 365.33 324.887 365.33 325.643V329.927H363.58V325.867C363.58 325.204 363.422 324.71 363.104 324.383C362.796 324.056 362.362 323.893 361.802 323.893C361.392 323.893 361.028 323.977 360.71 324.145C360.393 324.313 360.146 324.565 359.968 324.901C359.8 325.228 359.716 325.643 359.716 326.147V329.927H357.966V322.451H359.632V324.467L359.338 323.851C359.6 323.375 359.978 323.011 360.472 322.759C360.976 322.498 361.555 322.367 362.208 322.367Z" fill="#D40C31"/>
</g>
<rect x="295.22" y="302.076" width="89.1101" height="46" rx="3" stroke="#D40C31" stroke-width="2"/>
</g>
<g opacity="0.5">
<g clip-path="url(#clip6_285_6654)">
<rect x="434.33" y="300.076" width="91.1101" height="49" rx="3" fill="white"/>
<g clip-path="url(#clip7_285_6654)">
<path d="M454.33 328.927V319.127H458.922C460.098 319.127 460.994 319.36 461.61 319.827C462.226 320.284 462.534 320.9 462.534 321.675C462.534 322.198 462.413 322.646 462.17 323.019C461.927 323.383 461.601 323.668 461.19 323.873C460.789 324.069 460.35 324.167 459.874 324.167L460.126 323.663C460.677 323.663 461.171 323.766 461.61 323.971C462.049 324.167 462.394 324.456 462.646 324.839C462.907 325.222 463.038 325.698 463.038 326.267C463.038 327.107 462.716 327.76 462.072 328.227C461.428 328.694 460.471 328.927 459.202 328.927H454.33ZM456.15 327.499H459.09C459.771 327.499 460.294 327.387 460.658 327.163C461.022 326.939 461.204 326.58 461.204 326.085C461.204 325.6 461.022 325.245 460.658 325.021C460.294 324.788 459.771 324.671 459.09 324.671H456.01V323.257H458.726C459.361 323.257 459.846 323.145 460.182 322.921C460.527 322.697 460.7 322.361 460.7 321.913C460.7 321.456 460.527 321.115 460.182 320.891C459.846 320.667 459.361 320.555 458.726 320.555H456.15V327.499ZM468.172 329.025C467.407 329.025 466.726 328.862 466.128 328.535C465.531 328.199 465.06 327.742 464.714 327.163C464.369 326.584 464.196 325.926 464.196 325.189C464.196 324.442 464.369 323.784 464.714 323.215C465.06 322.636 465.531 322.184 466.128 321.857C466.726 321.53 467.407 321.367 468.172 321.367C468.947 321.367 469.633 321.53 470.23 321.857C470.837 322.184 471.308 322.632 471.644 323.201C471.99 323.77 472.162 324.433 472.162 325.189C472.162 325.926 471.99 326.584 471.644 327.163C471.308 327.742 470.837 328.199 470.23 328.535C469.633 328.862 468.947 329.025 468.172 329.025ZM468.172 327.527C468.602 327.527 468.984 327.434 469.32 327.247C469.656 327.06 469.918 326.79 470.104 326.435C470.3 326.08 470.398 325.665 470.398 325.189C470.398 324.704 470.3 324.288 470.104 323.943C469.918 323.588 469.656 323.318 469.32 323.131C468.984 322.944 468.606 322.851 468.186 322.851C467.757 322.851 467.374 322.944 467.038 323.131C466.712 323.318 466.45 323.588 466.254 323.943C466.058 324.288 465.96 324.704 465.96 325.189C465.96 325.665 466.058 326.08 466.254 326.435C466.45 326.79 466.712 327.06 467.038 327.247C467.374 327.434 467.752 327.527 468.172 327.527ZM477 329.025C476.365 329.025 475.805 328.908 475.32 328.675C474.835 328.432 474.457 328.068 474.186 327.583C473.915 327.088 473.78 326.468 473.78 325.721V321.451H475.53V325.483C475.53 326.155 475.679 326.659 475.978 326.995C476.286 327.322 476.72 327.485 477.28 327.485C477.691 327.485 478.045 327.401 478.344 327.233C478.652 327.065 478.89 326.813 479.058 326.477C479.235 326.141 479.324 325.726 479.324 325.231V321.451H481.074V328.927H479.408V326.911L479.702 327.527C479.45 328.012 479.081 328.386 478.596 328.647C478.111 328.899 477.579 329.025 477 329.025ZM486.179 329.025C485.358 329.025 484.723 328.815 484.275 328.395C483.827 327.966 483.603 327.336 483.603 326.505V319.799H485.353V326.463C485.353 326.818 485.442 327.093 485.619 327.289C485.806 327.485 486.063 327.583 486.389 327.583C486.781 327.583 487.108 327.48 487.369 327.275L487.859 328.521C487.654 328.689 487.402 328.815 487.103 328.899C486.805 328.983 486.497 329.025 486.179 329.025ZM482.371 322.907V321.507H487.355V322.907H482.371ZM492.413 329.025C491.647 329.025 490.966 328.862 490.369 328.535C489.771 328.199 489.3 327.742 488.955 327.163C488.609 326.584 488.437 325.926 488.437 325.189C488.437 324.442 488.609 323.784 488.955 323.215C489.3 322.636 489.771 322.184 490.369 321.857C490.966 321.53 491.647 321.367 492.413 321.367C493.187 321.367 493.873 321.53 494.471 321.857C495.077 322.184 495.549 322.632 495.885 323.201C496.23 323.77 496.403 324.433 496.403 325.189C496.403 325.926 496.23 326.584 495.885 327.163C495.549 327.742 495.077 328.199 494.471 328.535C493.873 328.862 493.187 329.025 492.413 329.025ZM492.413 327.527C492.842 327.527 493.225 327.434 493.561 327.247C493.897 327.06 494.158 326.79 494.345 326.435C494.541 326.08 494.639 325.665 494.639 325.189C494.639 324.704 494.541 324.288 494.345 323.943C494.158 323.588 493.897 323.318 493.561 323.131C493.225 322.944 492.847 322.851 492.427 322.851C491.997 322.851 491.615 322.944 491.279 323.131C490.952 323.318 490.691 323.588 490.495 323.943C490.299 324.288 490.201 324.704 490.201 325.189C490.201 325.665 490.299 326.08 490.495 326.435C490.691 326.79 490.952 327.06 491.279 327.247C491.615 327.434 491.993 327.527 492.413 327.527ZM502.318 321.367C502.915 321.367 503.447 321.484 503.914 321.717C504.39 321.95 504.763 322.31 505.034 322.795C505.305 323.271 505.44 323.887 505.44 324.643V328.927H503.69V324.867C503.69 324.204 503.531 323.71 503.214 323.383C502.906 323.056 502.472 322.893 501.912 322.893C501.501 322.893 501.137 322.977 500.82 323.145C500.503 323.313 500.255 323.565 500.078 323.901C499.91 324.228 499.826 324.643 499.826 325.147V328.927H498.076V321.451H499.742V323.467L499.448 322.851C499.709 322.375 500.087 322.011 500.582 321.759C501.086 321.498 501.665 321.367 502.318 321.367Z" fill="#D40C31"/>
</g>
<rect x="435.33" y="301.076" width="89.1101" height="46" rx="3" stroke="#D40C31" stroke-opacity="0.6" stroke-width="2"/>
</g>
</g>
<g opacity="0.5">
<g clip-path="url(#clip8_285_6654)">
<g clip-path="url(#clip9_285_6654)">
<path d="M454 230.927V221.127H458.592C459.768 221.127 460.664 221.36 461.28 221.827C461.896 222.284 462.204 222.9 462.204 223.675C462.204 224.198 462.083 224.646 461.84 225.019C461.597 225.383 461.271 225.668 460.86 225.873C460.459 226.069 460.02 226.167 459.544 226.167L459.796 225.663C460.347 225.663 460.841 225.766 461.28 225.971C461.719 226.167 462.064 226.456 462.316 226.839C462.577 227.222 462.708 227.698 462.708 228.267C462.708 229.107 462.386 229.76 461.742 230.227C461.098 230.694 460.141 230.927 458.872 230.927H454ZM455.82 229.499H458.76C459.441 229.499 459.964 229.387 460.328 229.163C460.692 228.939 460.874 228.58 460.874 228.085C460.874 227.6 460.692 227.245 460.328 227.021C459.964 226.788 459.441 226.671 458.76 226.671H455.68V225.257H458.396C459.031 225.257 459.516 225.145 459.852 224.921C460.197 224.697 460.37 224.361 460.37 223.913C460.37 223.456 460.197 223.115 459.852 222.891C459.516 222.667 459.031 222.555 458.396 222.555H455.82V229.499ZM467.842 231.025C467.077 231.025 466.396 230.862 465.798 230.535C465.201 230.199 464.73 229.742 464.384 229.163C464.039 228.584 463.866 227.926 463.866 227.189C463.866 226.442 464.039 225.784 464.384 225.215C464.73 224.636 465.201 224.184 465.798 223.857C466.396 223.53 467.077 223.367 467.842 223.367C468.617 223.367 469.303 223.53 469.9 223.857C470.507 224.184 470.978 224.632 471.314 225.201C471.66 225.77 471.832 226.433 471.832 227.189C471.832 227.926 471.66 228.584 471.314 229.163C470.978 229.742 470.507 230.199 469.9 230.535C469.303 230.862 468.617 231.025 467.842 231.025ZM467.842 229.527C468.272 229.527 468.654 229.434 468.99 229.247C469.326 229.06 469.588 228.79 469.774 228.435C469.97 228.08 470.068 227.665 470.068 227.189C470.068 226.704 469.97 226.288 469.774 225.943C469.588 225.588 469.326 225.318 468.99 225.131C468.654 224.944 468.276 224.851 467.856 224.851C467.427 224.851 467.044 224.944 466.708 225.131C466.382 225.318 466.12 225.588 465.924 225.943C465.728 226.288 465.63 226.704 465.63 227.189C465.63 227.665 465.728 228.08 465.924 228.435C466.12 228.79 466.382 229.06 466.708 229.247C467.044 229.434 467.422 229.527 467.842 229.527ZM476.67 231.025C476.035 231.025 475.475 230.908 474.99 230.675C474.504 230.432 474.126 230.068 473.856 229.583C473.585 229.088 473.45 228.468 473.45 227.721V223.451H475.2V227.483C475.2 228.155 475.349 228.659 475.648 228.995C475.956 229.322 476.39 229.485 476.95 229.485C477.36 229.485 477.715 229.401 478.014 229.233C478.322 229.065 478.56 228.813 478.728 228.477C478.905 228.141 478.994 227.726 478.994 227.231V223.451H480.744V230.927H479.078V228.911L479.372 229.527C479.12 230.012 478.751 230.386 478.266 230.647C477.78 230.899 477.248 231.025 476.67 231.025ZM485.849 231.025C485.028 231.025 484.393 230.815 483.945 230.395C483.497 229.966 483.273 229.336 483.273 228.505V221.799H485.023V228.463C485.023 228.818 485.112 229.093 485.289 229.289C485.476 229.485 485.732 229.583 486.059 229.583C486.451 229.583 486.778 229.48 487.039 229.275L487.529 230.521C487.324 230.689 487.072 230.815 486.773 230.899C486.474 230.983 486.166 231.025 485.849 231.025ZM482.041 224.907V223.507H487.025V224.907H482.041ZM492.083 231.025C491.317 231.025 490.636 230.862 490.039 230.535C489.441 230.199 488.97 229.742 488.625 229.163C488.279 228.584 488.107 227.926 488.107 227.189C488.107 226.442 488.279 225.784 488.625 225.215C488.97 224.636 489.441 224.184 490.039 223.857C490.636 223.53 491.317 223.367 492.083 223.367C492.857 223.367 493.543 223.53 494.141 223.857C494.747 224.184 495.219 224.632 495.555 225.201C495.9 225.77 496.073 226.433 496.073 227.189C496.073 227.926 495.9 228.584 495.555 229.163C495.219 229.742 494.747 230.199 494.141 230.535C493.543 230.862 492.857 231.025 492.083 231.025ZM492.083 229.527C492.512 229.527 492.895 229.434 493.231 229.247C493.567 229.06 493.828 228.79 494.015 228.435C494.211 228.08 494.309 227.665 494.309 227.189C494.309 226.704 494.211 226.288 494.015 225.943C493.828 225.588 493.567 225.318 493.231 225.131C492.895 224.944 492.517 224.851 492.097 224.851C491.667 224.851 491.285 224.944 490.949 225.131C490.622 225.318 490.361 225.588 490.165 225.943C489.969 226.288 489.871 226.704 489.871 227.189C489.871 227.665 489.969 228.08 490.165 228.435C490.361 228.79 490.622 229.06 490.949 229.247C491.285 229.434 491.663 229.527 492.083 229.527ZM501.988 223.367C502.585 223.367 503.117 223.484 503.584 223.717C504.06 223.95 504.433 224.31 504.704 224.795C504.975 225.271 505.11 225.887 505.11 226.643V230.927H503.36V226.867C503.36 226.204 503.201 225.71 502.884 225.383C502.576 225.056 502.142 224.893 501.582 224.893C501.171 224.893 500.807 224.977 500.49 225.145C500.173 225.313 499.925 225.565 499.748 225.901C499.58 226.228 499.496 226.643 499.496 227.147V230.927H497.746V223.451H499.412V225.467L499.118 224.851C499.379 224.375 499.757 224.011 500.252 223.759C500.756 223.498 501.335 223.367 501.988 223.367Z" fill="#333333"/>
</g>
<rect x="435" y="203.076" width="89.1101" height="46" rx="3" stroke="black" stroke-width="2"/>
</g>
</g>
<g opacity="0.5">
<g clip-path="url(#clip10_285_6654)">
<g clip-path="url(#clip11_285_6654)">
<rect x="434" y="104.076" width="91.1101" height="48" rx="4" fill="#0A2D82"/>
<path d="M454 132.927V123.127H458.592C459.768 123.127 460.664 123.36 461.28 123.827C461.896 124.284 462.204 124.9 462.204 125.675C462.204 126.198 462.083 126.646 461.84 127.019C461.597 127.383 461.271 127.668 460.86 127.873C460.459 128.069 460.02 128.167 459.544 128.167L459.796 127.663C460.347 127.663 460.841 127.766 461.28 127.971C461.719 128.167 462.064 128.456 462.316 128.839C462.577 129.222 462.708 129.698 462.708 130.267C462.708 131.107 462.386 131.76 461.742 132.227C461.098 132.694 460.141 132.927 458.872 132.927H454ZM455.82 131.499H458.76C459.441 131.499 459.964 131.387 460.328 131.163C460.692 130.939 460.874 130.58 460.874 130.085C460.874 129.6 460.692 129.245 460.328 129.021C459.964 128.788 459.441 128.671 458.76 128.671H455.68V127.257H458.396C459.031 127.257 459.516 127.145 459.852 126.921C460.197 126.697 460.37 126.361 460.37 125.913C460.37 125.456 460.197 125.115 459.852 124.891C459.516 124.667 459.031 124.555 458.396 124.555H455.82V131.499ZM467.842 133.025C467.077 133.025 466.396 132.862 465.798 132.535C465.201 132.199 464.73 131.742 464.384 131.163C464.039 130.584 463.866 129.926 463.866 129.189C463.866 128.442 464.039 127.784 464.384 127.215C464.73 126.636 465.201 126.184 465.798 125.857C466.396 125.53 467.077 125.367 467.842 125.367C468.617 125.367 469.303 125.53 469.9 125.857C470.507 126.184 470.978 126.632 471.314 127.201C471.66 127.77 471.832 128.433 471.832 129.189C471.832 129.926 471.66 130.584 471.314 131.163C470.978 131.742 470.507 132.199 469.9 132.535C469.303 132.862 468.617 133.025 467.842 133.025ZM467.842 131.527C468.272 131.527 468.654 131.434 468.99 131.247C469.326 131.06 469.588 130.79 469.774 130.435C469.97 130.08 470.068 129.665 470.068 129.189C470.068 128.704 469.97 128.288 469.774 127.943C469.588 127.588 469.326 127.318 468.99 127.131C468.654 126.944 468.276 126.851 467.856 126.851C467.427 126.851 467.044 126.944 466.708 127.131C466.382 127.318 466.12 127.588 465.924 127.943C465.728 128.288 465.63 128.704 465.63 129.189C465.63 129.665 465.728 130.08 465.924 130.435C466.12 130.79 466.382 131.06 466.708 131.247C467.044 131.434 467.422 131.527 467.842 131.527ZM476.67 133.025C476.035 133.025 475.475 132.908 474.99 132.675C474.504 132.432 474.126 132.068 473.856 131.583C473.585 131.088 473.45 130.468 473.45 129.721V125.451H475.2V129.483C475.2 130.155 475.349 130.659 475.648 130.995C475.956 131.322 476.39 131.485 476.95 131.485C477.36 131.485 477.715 131.401 478.014 131.233C478.322 131.065 478.56 130.813 478.728 130.477C478.905 130.141 478.994 129.726 478.994 129.231V125.451H480.744V132.927H479.078V130.911L479.372 131.527C479.12 132.012 478.751 132.386 478.266 132.647C477.78 132.899 477.248 133.025 476.67 133.025ZM485.849 133.025C485.028 133.025 484.393 132.815 483.945 132.395C483.497 131.966 483.273 131.336 483.273 130.505V123.799H485.023V130.463C485.023 130.818 485.112 131.093 485.289 131.289C485.476 131.485 485.732 131.583 486.059 131.583C486.451 131.583 486.778 131.48 487.039 131.275L487.529 132.521C487.324 132.689 487.072 132.815 486.773 132.899C486.474 132.983 486.166 133.025 485.849 133.025ZM482.041 126.907V125.507H487.025V126.907H482.041ZM492.083 133.025C491.317 133.025 490.636 132.862 490.039 132.535C489.441 132.199 488.97 131.742 488.625 131.163C488.279 130.584 488.107 129.926 488.107 129.189C488.107 128.442 488.279 127.784 488.625 127.215C488.97 126.636 489.441 126.184 490.039 125.857C490.636 125.53 491.317 125.367 492.083 125.367C492.857 125.367 493.543 125.53 494.141 125.857C494.747 126.184 495.219 126.632 495.555 127.201C495.9 127.77 496.073 128.433 496.073 129.189C496.073 129.926 495.9 130.584 495.555 131.163C495.219 131.742 494.747 132.199 494.141 132.535C493.543 132.862 492.857 133.025 492.083 133.025ZM492.083 131.527C492.512 131.527 492.895 131.434 493.231 131.247C493.567 131.06 493.828 130.79 494.015 130.435C494.211 130.08 494.309 129.665 494.309 129.189C494.309 128.704 494.211 128.288 494.015 127.943C493.828 127.588 493.567 127.318 493.231 127.131C492.895 126.944 492.517 126.851 492.097 126.851C491.667 126.851 491.285 126.944 490.949 127.131C490.622 127.318 490.361 127.588 490.165 127.943C489.969 128.288 489.871 128.704 489.871 129.189C489.871 129.665 489.969 130.08 490.165 130.435C490.361 130.79 490.622 131.06 490.949 131.247C491.285 131.434 491.663 131.527 492.083 131.527ZM501.988 125.367C502.585 125.367 503.117 125.484 503.584 125.717C504.06 125.95 504.433 126.31 504.704 126.795C504.975 127.271 505.11 127.887 505.11 128.643V132.927H503.36V128.867C503.36 128.204 503.201 127.71 502.884 127.383C502.576 127.056 502.142 126.893 501.582 126.893C501.171 126.893 500.807 126.977 500.49 127.145C500.173 127.313 499.925 127.565 499.748 127.901C499.58 128.228 499.496 128.643 499.496 129.147V132.927H497.746V125.451H499.412V127.467L499.118 126.851C499.379 126.375 499.757 126.011 500.252 125.759C500.756 125.498 501.335 125.367 501.988 125.367Z" fill="white"/>
</g>
</g>
</g>
<g clip-path="url(#clip12_285_6654)">
<g clip-path="url(#clip13_285_6654)">
<rect x="154" y="202.076" width="91.1101" height="48" rx="4" fill="#0A2D82" fill-opacity="0.1"/>
<path d="M174 230.927V221.127H178.592C179.768 221.127 180.664 221.36 181.28 221.827C181.896 222.284 182.204 222.9 182.204 223.675C182.204 224.198 182.083 224.646 181.84 225.019C181.597 225.383 181.271 225.668 180.86 225.873C180.459 226.069 180.02 226.167 179.544 226.167L179.796 225.663C180.347 225.663 180.841 225.766 181.28 225.971C181.719 226.167 182.064 226.456 182.316 226.839C182.577 227.222 182.708 227.698 182.708 228.267C182.708 229.107 182.386 229.76 181.742 230.227C181.098 230.694 180.141 230.927 178.872 230.927H174ZM175.82 229.499H178.76C179.441 229.499 179.964 229.387 180.328 229.163C180.692 228.939 180.874 228.58 180.874 228.085C180.874 227.6 180.692 227.245 180.328 227.021C179.964 226.788 179.441 226.671 178.76 226.671H175.68V225.257H178.396C179.031 225.257 179.516 225.145 179.852 224.921C180.197 224.697 180.37 224.361 180.37 223.913C180.37 223.456 180.197 223.115 179.852 222.891C179.516 222.667 179.031 222.555 178.396 222.555H175.82V229.499ZM187.842 231.025C187.077 231.025 186.396 230.862 185.798 230.535C185.201 230.199 184.73 229.742 184.384 229.163C184.039 228.584 183.866 227.926 183.866 227.189C183.866 226.442 184.039 225.784 184.384 225.215C184.73 224.636 185.201 224.184 185.798 223.857C186.396 223.53 187.077 223.367 187.842 223.367C188.617 223.367 189.303 223.53 189.9 223.857C190.507 224.184 190.978 224.632 191.314 225.201C191.66 225.77 191.832 226.433 191.832 227.189C191.832 227.926 191.66 228.584 191.314 229.163C190.978 229.742 190.507 230.199 189.9 230.535C189.303 230.862 188.617 231.025 187.842 231.025ZM187.842 229.527C188.272 229.527 188.654 229.434 188.99 229.247C189.326 229.06 189.588 228.79 189.774 228.435C189.97 228.08 190.068 227.665 190.068 227.189C190.068 226.704 189.97 226.288 189.774 225.943C189.588 225.588 189.326 225.318 188.99 225.131C188.654 224.944 188.276 224.851 187.856 224.851C187.427 224.851 187.044 224.944 186.708 225.131C186.382 225.318 186.12 225.588 185.924 225.943C185.728 226.288 185.63 226.704 185.63 227.189C185.63 227.665 185.728 228.08 185.924 228.435C186.12 228.79 186.382 229.06 186.708 229.247C187.044 229.434 187.422 229.527 187.842 229.527ZM196.67 231.025C196.035 231.025 195.475 230.908 194.99 230.675C194.504 230.432 194.126 230.068 193.856 229.583C193.585 229.088 193.45 228.468 193.45 227.721V223.451H195.2V227.483C195.2 228.155 195.349 228.659 195.648 228.995C195.956 229.322 196.39 229.485 196.95 229.485C197.36 229.485 197.715 229.401 198.014 229.233C198.322 229.065 198.56 228.813 198.728 228.477C198.905 228.141 198.994 227.726 198.994 227.231V223.451H200.744V230.927H199.078V228.911L199.372 229.527C199.12 230.012 198.751 230.386 198.266 230.647C197.78 230.899 197.248 231.025 196.67 231.025ZM205.849 231.025C205.028 231.025 204.393 230.815 203.945 230.395C203.497 229.966 203.273 229.336 203.273 228.505V221.799H205.023V228.463C205.023 228.818 205.112 229.093 205.289 229.289C205.476 229.485 205.732 229.583 206.059 229.583C206.451 229.583 206.778 229.48 207.039 229.275L207.529 230.521C207.324 230.689 207.072 230.815 206.773 230.899C206.474 230.983 206.166 231.025 205.849 231.025ZM202.041 224.907V223.507H207.025V224.907H202.041ZM212.083 231.025C211.317 231.025 210.636 230.862 210.039 230.535C209.441 230.199 208.97 229.742 208.625 229.163C208.279 228.584 208.107 227.926 208.107 227.189C208.107 226.442 208.279 225.784 208.625 225.215C208.97 224.636 209.441 224.184 210.039 223.857C210.636 223.53 211.317 223.367 212.083 223.367C212.857 223.367 213.543 223.53 214.141 223.857C214.747 224.184 215.219 224.632 215.555 225.201C215.9 225.77 216.073 226.433 216.073 227.189C216.073 227.926 215.9 228.584 215.555 229.163C215.219 229.742 214.747 230.199 214.141 230.535C213.543 230.862 212.857 231.025 212.083 231.025ZM212.083 229.527C212.512 229.527 212.895 229.434 213.231 229.247C213.567 229.06 213.828 228.79 214.015 228.435C214.211 228.08 214.309 227.665 214.309 227.189C214.309 226.704 214.211 226.288 214.015 225.943C213.828 225.588 213.567 225.318 213.231 225.131C212.895 224.944 212.517 224.851 212.097 224.851C211.667 224.851 211.285 224.944 210.949 225.131C210.622 225.318 210.361 225.588 210.165 225.943C209.969 226.288 209.871 226.704 209.871 227.189C209.871 227.665 209.969 228.08 210.165 228.435C210.361 228.79 210.622 229.06 210.949 229.247C211.285 229.434 211.663 229.527 212.083 229.527ZM221.988 223.367C222.585 223.367 223.117 223.484 223.584 223.717C224.06 223.95 224.433 224.31 224.704 224.795C224.975 225.271 225.11 225.887 225.11 226.643V230.927H223.36V226.867C223.36 226.204 223.201 225.71 222.884 225.383C222.576 225.056 222.142 224.893 221.582 224.893C221.171 224.893 220.807 224.977 220.49 225.145C220.173 225.313 219.925 225.565 219.748 225.901C219.58 226.228 219.496 226.643 219.496 227.147V230.927H217.746V223.451H219.412V225.467L219.118 224.851C219.379 224.375 219.757 224.011 220.252 223.759C220.756 223.498 221.335 223.367 221.988 223.367Z" fill="#333333"/>
</g>
<rect x="155" y="203.076" width="89.1101" height="46" rx="3" stroke="black" stroke-width="2"/>
</g>
<g clip-path="url(#clip14_285_6654)">
<g clip-path="url(#clip15_285_6654)">
<rect x="294" y="203.076" width="91.1101" height="48" rx="4" fill="#0A2D82" fill-opacity="0.1"/>
<path d="M314 231.927V222.127H318.592C319.768 222.127 320.664 222.36 321.28 222.827C321.896 223.284 322.204 223.9 322.204 224.675C322.204 225.198 322.083 225.646 321.84 226.019C321.597 226.383 321.271 226.668 320.86 226.873C320.459 227.069 320.02 227.167 319.544 227.167L319.796 226.663C320.347 226.663 320.841 226.766 321.28 226.971C321.719 227.167 322.064 227.456 322.316 227.839C322.577 228.222 322.708 228.698 322.708 229.267C322.708 230.107 322.386 230.76 321.742 231.227C321.098 231.694 320.141 231.927 318.872 231.927H314ZM315.82 230.499H318.76C319.441 230.499 319.964 230.387 320.328 230.163C320.692 229.939 320.874 229.58 320.874 229.085C320.874 228.6 320.692 228.245 320.328 228.021C319.964 227.788 319.441 227.671 318.76 227.671H315.68V226.257H318.396C319.031 226.257 319.516 226.145 319.852 225.921C320.197 225.697 320.37 225.361 320.37 224.913C320.37 224.456 320.197 224.115 319.852 223.891C319.516 223.667 319.031 223.555 318.396 223.555H315.82V230.499ZM327.842 232.025C327.077 232.025 326.396 231.862 325.798 231.535C325.201 231.199 324.73 230.742 324.384 230.163C324.039 229.584 323.866 228.926 323.866 228.189C323.866 227.442 324.039 226.784 324.384 226.215C324.73 225.636 325.201 225.184 325.798 224.857C326.396 224.53 327.077 224.367 327.842 224.367C328.617 224.367 329.303 224.53 329.9 224.857C330.507 225.184 330.978 225.632 331.314 226.201C331.66 226.77 331.832 227.433 331.832 228.189C331.832 228.926 331.66 229.584 331.314 230.163C330.978 230.742 330.507 231.199 329.9 231.535C329.303 231.862 328.617 232.025 327.842 232.025ZM327.842 230.527C328.272 230.527 328.654 230.434 328.99 230.247C329.326 230.06 329.588 229.79 329.774 229.435C329.97 229.08 330.068 228.665 330.068 228.189C330.068 227.704 329.97 227.288 329.774 226.943C329.588 226.588 329.326 226.318 328.99 226.131C328.654 225.944 328.276 225.851 327.856 225.851C327.427 225.851 327.044 225.944 326.708 226.131C326.382 226.318 326.12 226.588 325.924 226.943C325.728 227.288 325.63 227.704 325.63 228.189C325.63 228.665 325.728 229.08 325.924 229.435C326.12 229.79 326.382 230.06 326.708 230.247C327.044 230.434 327.422 230.527 327.842 230.527ZM336.67 232.025C336.035 232.025 335.475 231.908 334.99 231.675C334.504 231.432 334.126 231.068 333.856 230.583C333.585 230.088 333.45 229.468 333.45 228.721V224.451H335.2V228.483C335.2 229.155 335.349 229.659 335.648 229.995C335.956 230.322 336.39 230.485 336.95 230.485C337.36 230.485 337.715 230.401 338.014 230.233C338.322 230.065 338.56 229.813 338.728 229.477C338.905 229.141 338.994 228.726 338.994 228.231V224.451H340.744V231.927H339.078V229.911L339.372 230.527C339.12 231.012 338.751 231.386 338.266 231.647C337.78 231.899 337.248 232.025 336.67 232.025ZM345.849 232.025C345.028 232.025 344.393 231.815 343.945 231.395C343.497 230.966 343.273 230.336 343.273 229.505V222.799H345.023V229.463C345.023 229.818 345.112 230.093 345.289 230.289C345.476 230.485 345.732 230.583 346.059 230.583C346.451 230.583 346.778 230.48 347.039 230.275L347.529 231.521C347.324 231.689 347.072 231.815 346.773 231.899C346.474 231.983 346.166 232.025 345.849 232.025ZM342.041 225.907V224.507H347.025V225.907H342.041ZM352.083 232.025C351.317 232.025 350.636 231.862 350.039 231.535C349.441 231.199 348.97 230.742 348.625 230.163C348.279 229.584 348.107 228.926 348.107 228.189C348.107 227.442 348.279 226.784 348.625 226.215C348.97 225.636 349.441 225.184 350.039 224.857C350.636 224.53 351.317 224.367 352.083 224.367C352.857 224.367 353.543 224.53 354.141 224.857C354.747 225.184 355.219 225.632 355.555 226.201C355.9 226.77 356.073 227.433 356.073 228.189C356.073 228.926 355.9 229.584 355.555 230.163C355.219 230.742 354.747 231.199 354.141 231.535C353.543 231.862 352.857 232.025 352.083 232.025ZM352.083 230.527C352.512 230.527 352.895 230.434 353.231 230.247C353.567 230.06 353.828 229.79 354.015 229.435C354.211 229.08 354.309 228.665 354.309 228.189C354.309 227.704 354.211 227.288 354.015 226.943C353.828 226.588 353.567 226.318 353.231 226.131C352.895 225.944 352.517 225.851 352.097 225.851C351.667 225.851 351.285 225.944 350.949 226.131C350.622 226.318 350.361 226.588 350.165 226.943C349.969 227.288 349.871 227.704 349.871 228.189C349.871 228.665 349.969 229.08 350.165 229.435C350.361 229.79 350.622 230.06 350.949 230.247C351.285 230.434 351.663 230.527 352.083 230.527ZM361.988 224.367C362.585 224.367 363.117 224.484 363.584 224.717C364.06 224.95 364.433 225.31 364.704 225.795C364.975 226.271 365.11 226.887 365.11 227.643V231.927H363.36V227.867C363.36 227.204 363.201 226.71 362.884 226.383C362.576 226.056 362.142 225.893 361.582 225.893C361.171 225.893 360.807 225.977 360.49 226.145C360.173 226.313 359.925 226.565 359.748 226.901C359.58 227.228 359.496 227.643 359.496 228.147V231.927H357.746V224.451H359.412V226.467L359.118 225.851C359.379 225.375 359.757 225.011 360.252 224.759C360.756 224.498 361.335 224.367 361.988 224.367Z" fill="#333333"/>
</g>
<rect x="295" y="204.076" width="89.1101" height="46" rx="3" stroke="black" stroke-width="2"/>
</g>
<g clip-path="url(#clip16_285_6654)">
<g clip-path="url(#clip17_285_6654)">
<rect x="294" y="105.076" width="91.1101" height="48" rx="4" fill="#0A2D82"/>
<rect x="294" y="105.076" width="91.1101" height="48" rx="3" fill="black" fill-opacity="0.3"/>
<path d="M314 133.927V124.127H318.592C319.768 124.127 320.664 124.36 321.28 124.827C321.896 125.284 322.204 125.9 322.204 126.675C322.204 127.198 322.083 127.646 321.84 128.019C321.597 128.383 321.271 128.668 320.86 128.873C320.459 129.069 320.02 129.167 319.544 129.167L319.796 128.663C320.347 128.663 320.841 128.766 321.28 128.971C321.719 129.167 322.064 129.456 322.316 129.839C322.577 130.222 322.708 130.698 322.708 131.267C322.708 132.107 322.386 132.76 321.742 133.227C321.098 133.694 320.141 133.927 318.872 133.927H314ZM315.82 132.499H318.76C319.441 132.499 319.964 132.387 320.328 132.163C320.692 131.939 320.874 131.58 320.874 131.085C320.874 130.6 320.692 130.245 320.328 130.021C319.964 129.788 319.441 129.671 318.76 129.671H315.68V128.257H318.396C319.031 128.257 319.516 128.145 319.852 127.921C320.197 127.697 320.37 127.361 320.37 126.913C320.37 126.456 320.197 126.115 319.852 125.891C319.516 125.667 319.031 125.555 318.396 125.555H315.82V132.499ZM327.842 134.025C327.077 134.025 326.396 133.862 325.798 133.535C325.201 133.199 324.73 132.742 324.384 132.163C324.039 131.584 323.866 130.926 323.866 130.189C323.866 129.442 324.039 128.784 324.384 128.215C324.73 127.636 325.201 127.184 325.798 126.857C326.396 126.53 327.077 126.367 327.842 126.367C328.617 126.367 329.303 126.53 329.9 126.857C330.507 127.184 330.978 127.632 331.314 128.201C331.66 128.77 331.832 129.433 331.832 130.189C331.832 130.926 331.66 131.584 331.314 132.163C330.978 132.742 330.507 133.199 329.9 133.535C329.303 133.862 328.617 134.025 327.842 134.025ZM327.842 132.527C328.272 132.527 328.654 132.434 328.99 132.247C329.326 132.06 329.588 131.79 329.774 131.435C329.97 131.08 330.068 130.665 330.068 130.189C330.068 129.704 329.97 129.288 329.774 128.943C329.588 128.588 329.326 128.318 328.99 128.131C328.654 127.944 328.276 127.851 327.856 127.851C327.427 127.851 327.044 127.944 326.708 128.131C326.382 128.318 326.12 128.588 325.924 128.943C325.728 129.288 325.63 129.704 325.63 130.189C325.63 130.665 325.728 131.08 325.924 131.435C326.12 131.79 326.382 132.06 326.708 132.247C327.044 132.434 327.422 132.527 327.842 132.527ZM336.67 134.025C336.035 134.025 335.475 133.908 334.99 133.675C334.504 133.432 334.126 133.068 333.856 132.583C333.585 132.088 333.45 131.468 333.45 130.721V126.451H335.2V130.483C335.2 131.155 335.349 131.659 335.648 131.995C335.956 132.322 336.39 132.485 336.95 132.485C337.36 132.485 337.715 132.401 338.014 132.233C338.322 132.065 338.56 131.813 338.728 131.477C338.905 131.141 338.994 130.726 338.994 130.231V126.451H340.744V133.927H339.078V131.911L339.372 132.527C339.12 133.012 338.751 133.386 338.266 133.647C337.78 133.899 337.248 134.025 336.67 134.025ZM345.849 134.025C345.028 134.025 344.393 133.815 343.945 133.395C343.497 132.966 343.273 132.336 343.273 131.505V124.799H345.023V131.463C345.023 131.818 345.112 132.093 345.289 132.289C345.476 132.485 345.732 132.583 346.059 132.583C346.451 132.583 346.778 132.48 347.039 132.275L347.529 133.521C347.324 133.689 347.072 133.815 346.773 133.899C346.474 133.983 346.166 134.025 345.849 134.025ZM342.041 127.907V126.507H347.025V127.907H342.041ZM352.083 134.025C351.317 134.025 350.636 133.862 350.039 133.535C349.441 133.199 348.97 132.742 348.625 132.163C348.279 131.584 348.107 130.926 348.107 130.189C348.107 129.442 348.279 128.784 348.625 128.215C348.97 127.636 349.441 127.184 350.039 126.857C350.636 126.53 351.317 126.367 352.083 126.367C352.857 126.367 353.543 126.53 354.141 126.857C354.747 127.184 355.219 127.632 355.555 128.201C355.9 128.77 356.073 129.433 356.073 130.189C356.073 130.926 355.9 131.584 355.555 132.163C355.219 132.742 354.747 133.199 354.141 133.535C353.543 133.862 352.857 134.025 352.083 134.025ZM352.083 132.527C352.512 132.527 352.895 132.434 353.231 132.247C353.567 132.06 353.828 131.79 354.015 131.435C354.211 131.08 354.309 130.665 354.309 130.189C354.309 129.704 354.211 129.288 354.015 128.943C353.828 128.588 353.567 128.318 353.231 128.131C352.895 127.944 352.517 127.851 352.097 127.851C351.667 127.851 351.285 127.944 350.949 128.131C350.622 128.318 350.361 128.588 350.165 128.943C349.969 129.288 349.871 129.704 349.871 130.189C349.871 130.665 349.969 131.08 350.165 131.435C350.361 131.79 350.622 132.06 350.949 132.247C351.285 132.434 351.663 132.527 352.083 132.527ZM361.988 126.367C362.585 126.367 363.117 126.484 363.584 126.717C364.06 126.95 364.433 127.31 364.704 127.795C364.975 128.271 365.11 128.887 365.11 129.643V133.927H363.36V129.867C363.36 129.204 363.201 128.71 362.884 128.383C362.576 128.056 362.142 127.893 361.582 127.893C361.171 127.893 360.807 127.977 360.49 128.145C360.173 128.313 359.925 128.565 359.748 128.901C359.58 129.228 359.496 129.643 359.496 130.147V133.927H357.746V126.451H359.412V128.467L359.118 127.851C359.379 127.375 359.757 127.011 360.252 126.759C360.756 126.498 361.335 126.367 361.988 126.367Z" fill="white"/>
</g>
</g>
<g clip-path="url(#clip18_285_6654)">
<g clip-path="url(#clip19_285_6654)">
<rect x="154" y="104.076" width="91.1101" height="48" rx="4" fill="#0A2D82"/>
<rect x="154" y="104.076" width="91.1101" height="48" rx="3" fill="black" fill-opacity="0.3"/>
<path d="M174 132.927V123.127H178.592C179.768 123.127 180.664 123.36 181.28 123.827C181.896 124.284 182.204 124.9 182.204 125.675C182.204 126.198 182.083 126.646 181.84 127.019C181.597 127.383 181.271 127.668 180.86 127.873C180.459 128.069 180.02 128.167 179.544 128.167L179.796 127.663C180.347 127.663 180.841 127.766 181.28 127.971C181.719 128.167 182.064 128.456 182.316 128.839C182.577 129.222 182.708 129.698 182.708 130.267C182.708 131.107 182.386 131.76 181.742 132.227C181.098 132.694 180.141 132.927 178.872 132.927H174ZM175.82 131.499H178.76C179.441 131.499 179.964 131.387 180.328 131.163C180.692 130.939 180.874 130.58 180.874 130.085C180.874 129.6 180.692 129.245 180.328 129.021C179.964 128.788 179.441 128.671 178.76 128.671H175.68V127.257H178.396C179.031 127.257 179.516 127.145 179.852 126.921C180.197 126.697 180.37 126.361 180.37 125.913C180.37 125.456 180.197 125.115 179.852 124.891C179.516 124.667 179.031 124.555 178.396 124.555H175.82V131.499ZM187.842 133.025C187.077 133.025 186.396 132.862 185.798 132.535C185.201 132.199 184.73 131.742 184.384 131.163C184.039 130.584 183.866 129.926 183.866 129.189C183.866 128.442 184.039 127.784 184.384 127.215C184.73 126.636 185.201 126.184 185.798 125.857C186.396 125.53 187.077 125.367 187.842 125.367C188.617 125.367 189.303 125.53 189.9 125.857C190.507 126.184 190.978 126.632 191.314 127.201C191.66 127.77 191.832 128.433 191.832 129.189C191.832 129.926 191.66 130.584 191.314 131.163C190.978 131.742 190.507 132.199 189.9 132.535C189.303 132.862 188.617 133.025 187.842 133.025ZM187.842 131.527C188.272 131.527 188.654 131.434 188.99 131.247C189.326 131.06 189.588 130.79 189.774 130.435C189.97 130.08 190.068 129.665 190.068 129.189C190.068 128.704 189.97 128.288 189.774 127.943C189.588 127.588 189.326 127.318 188.99 127.131C188.654 126.944 188.276 126.851 187.856 126.851C187.427 126.851 187.044 126.944 186.708 127.131C186.382 127.318 186.12 127.588 185.924 127.943C185.728 128.288 185.63 128.704 185.63 129.189C185.63 129.665 185.728 130.08 185.924 130.435C186.12 130.79 186.382 131.06 186.708 131.247C187.044 131.434 187.422 131.527 187.842 131.527ZM196.67 133.025C196.035 133.025 195.475 132.908 194.99 132.675C194.504 132.432 194.126 132.068 193.856 131.583C193.585 131.088 193.45 130.468 193.45 129.721V125.451H195.2V129.483C195.2 130.155 195.349 130.659 195.648 130.995C195.956 131.322 196.39 131.485 196.95 131.485C197.36 131.485 197.715 131.401 198.014 131.233C198.322 131.065 198.56 130.813 198.728 130.477C198.905 130.141 198.994 129.726 198.994 129.231V125.451H200.744V132.927H199.078V130.911L199.372 131.527C199.12 132.012 198.751 132.386 198.266 132.647C197.78 132.899 197.248 133.025 196.67 133.025ZM205.849 133.025C205.028 133.025 204.393 132.815 203.945 132.395C203.497 131.966 203.273 131.336 203.273 130.505V123.799H205.023V130.463C205.023 130.818 205.112 131.093 205.289 131.289C205.476 131.485 205.732 131.583 206.059 131.583C206.451 131.583 206.778 131.48 207.039 131.275L207.529 132.521C207.324 132.689 207.072 132.815 206.773 132.899C206.474 132.983 206.166 133.025 205.849 133.025ZM202.041 126.907V125.507H207.025V126.907H202.041ZM212.083 133.025C211.317 133.025 210.636 132.862 210.039 132.535C209.441 132.199 208.97 131.742 208.625 131.163C208.279 130.584 208.107 129.926 208.107 129.189C208.107 128.442 208.279 127.784 208.625 127.215C208.97 126.636 209.441 126.184 210.039 125.857C210.636 125.53 211.317 125.367 212.083 125.367C212.857 125.367 213.543 125.53 214.141 125.857C214.747 126.184 215.219 126.632 215.555 127.201C215.9 127.77 216.073 128.433 216.073 129.189C216.073 129.926 215.9 130.584 215.555 131.163C215.219 131.742 214.747 132.199 214.141 132.535C213.543 132.862 212.857 133.025 212.083 133.025ZM212.083 131.527C212.512 131.527 212.895 131.434 213.231 131.247C213.567 131.06 213.828 130.79 214.015 130.435C214.211 130.08 214.309 129.665 214.309 129.189C214.309 128.704 214.211 128.288 214.015 127.943C213.828 127.588 213.567 127.318 213.231 127.131C212.895 126.944 212.517 126.851 212.097 126.851C211.667 126.851 211.285 126.944 210.949 127.131C210.622 127.318 210.361 127.588 210.165 127.943C209.969 128.288 209.871 128.704 209.871 129.189C209.871 129.665 209.969 130.08 210.165 130.435C210.361 130.79 210.622 131.06 210.949 131.247C211.285 131.434 211.663 131.527 212.083 131.527ZM221.988 125.367C222.585 125.367 223.117 125.484 223.584 125.717C224.06 125.95 224.433 126.31 224.704 126.795C224.975 127.271 225.11 127.887 225.11 128.643V132.927H223.36V128.867C223.36 128.204 223.201 127.71 222.884 127.383C222.576 127.056 222.142 126.893 221.582 126.893C221.171 126.893 220.807 126.977 220.49 127.145C220.173 127.313 219.925 127.565 219.748 127.901C219.58 128.228 219.496 128.643 219.496 129.147V132.927H217.746V125.451H219.412V127.467L219.118 126.851C219.379 126.375 219.757 126.011 220.252 125.759C220.756 125.498 221.335 125.367 221.988 125.367Z" fill="white"/>
</g>
</g>
<g clip-path="url(#clip20_285_6654)">
<g clip-path="url(#clip21_285_6654)">
<path d="M34 230.927V221.127H38.592C39.768 221.127 40.664 221.36 41.28 221.827C41.896 222.284 42.204 222.9 42.204 223.675C42.204 224.198 42.0827 224.646 41.84 225.019C41.5973 225.383 41.2707 225.668 40.86 225.873C40.4587 226.069 40.02 226.167 39.544 226.167L39.796 225.663C40.3467 225.663 40.8413 225.766 41.28 225.971C41.7187 226.167 42.064 226.456 42.316 226.839C42.5773 227.222 42.708 227.698 42.708 228.267C42.708 229.107 42.386 229.76 41.742 230.227C41.098 230.694 40.1413 230.927 38.872 230.927H34ZM35.82 229.499H38.76C39.4413 229.499 39.964 229.387 40.328 229.163C40.692 228.939 40.874 228.58 40.874 228.085C40.874 227.6 40.692 227.245 40.328 227.021C39.964 226.788 39.4413 226.671 38.76 226.671H35.68V225.257H38.396C39.0307 225.257 39.516 225.145 39.852 224.921C40.1973 224.697 40.37 224.361 40.37 223.913C40.37 223.456 40.1973 223.115 39.852 222.891C39.516 222.667 39.0307 222.555 38.396 222.555H35.82V229.499ZM47.8424 231.025C47.0771 231.025 46.3957 230.862 45.7984 230.535C45.2011 230.199 44.7297 229.742 44.3844 229.163C44.0391 228.584 43.8664 227.926 43.8664 227.189C43.8664 226.442 44.0391 225.784 44.3844 225.215C44.7297 224.636 45.2011 224.184 45.7984 223.857C46.3957 223.53 47.0771 223.367 47.8424 223.367C48.6171 223.367 49.3031 223.53 49.9004 223.857C50.5071 224.184 50.9784 224.632 51.3144 225.201C51.6597 225.77 51.8324 226.433 51.8324 227.189C51.8324 227.926 51.6597 228.584 51.3144 229.163C50.9784 229.742 50.5071 230.199 49.9004 230.535C49.3031 230.862 48.6171 231.025 47.8424 231.025ZM47.8424 229.527C48.2717 229.527 48.6544 229.434 48.9904 229.247C49.3264 229.06 49.5877 228.79 49.7744 228.435C49.9704 228.08 50.0684 227.665 50.0684 227.189C50.0684 226.704 49.9704 226.288 49.7744 225.943C49.5877 225.588 49.3264 225.318 48.9904 225.131C48.6544 224.944 48.2764 224.851 47.8564 224.851C47.4271 224.851 47.0444 224.944 46.7084 225.131C46.3817 225.318 46.1204 225.588 45.9244 225.943C45.7284 226.288 45.6304 226.704 45.6304 227.189C45.6304 227.665 45.7284 228.08 45.9244 228.435C46.1204 228.79 46.3817 229.06 46.7084 229.247C47.0444 229.434 47.4224 229.527 47.8424 229.527ZM56.6698 231.025C56.0352 231.025 55.4752 230.908 54.9898 230.675C54.5045 230.432 54.1265 230.068 53.8558 229.583C53.5852 229.088 53.4498 228.468 53.4498 227.721V223.451H55.1998V227.483C55.1998 228.155 55.3492 228.659 55.6478 228.995C55.9558 229.322 56.3898 229.485 56.9498 229.485C57.3605 229.485 57.7152 229.401 58.0138 229.233C58.3218 229.065 58.5598 228.813 58.7278 228.477C58.9052 228.141 58.9938 227.726 58.9938 227.231V223.451H60.7438V230.927H59.0778V228.911L59.3718 229.527C59.1198 230.012 58.7512 230.386 58.2658 230.647C57.7805 230.899 57.2485 231.025 56.6698 231.025ZM65.8491 231.025C65.0278 231.025 64.3931 230.815 63.9451 230.395C63.4971 229.966 63.2731 229.336 63.2731 228.505V221.799H65.0231V228.463C65.0231 228.818 65.1118 229.093 65.2891 229.289C65.4758 229.485 65.7325 229.583 66.0591 229.583C66.4511 229.583 66.7778 229.48 67.0391 229.275L67.5291 230.521C67.3238 230.689 67.0718 230.815 66.7731 230.899C66.4745 230.983 66.1665 231.025 65.8491 231.025ZM62.0411 224.907V223.507H67.0251V224.907H62.0411ZM72.0826 231.025C71.3173 231.025 70.636 230.862 70.0386 230.535C69.4413 230.199 68.97 229.742 68.6246 229.163C68.2793 228.584 68.1066 227.926 68.1066 227.189C68.1066 226.442 68.2793 225.784 68.6246 225.215C68.97 224.636 69.4413 224.184 70.0386 223.857C70.636 223.53 71.3173 223.367 72.0826 223.367C72.8573 223.367 73.5433 223.53 74.1406 223.857C74.7473 224.184 75.2186 224.632 75.5546 225.201C75.9 225.77 76.0726 226.433 76.0726 227.189C76.0726 227.926 75.9 228.584 75.5546 229.163C75.2186 229.742 74.7473 230.199 74.1406 230.535C73.5433 230.862 72.8573 231.025 72.0826 231.025ZM72.0826 229.527C72.512 229.527 72.8946 229.434 73.2306 229.247C73.5666 229.06 73.828 228.79 74.0146 228.435C74.2106 228.08 74.3086 227.665 74.3086 227.189C74.3086 226.704 74.2106 226.288 74.0146 225.943C73.828 225.588 73.5666 225.318 73.2306 225.131C72.8946 224.944 72.5166 224.851 72.0966 224.851C71.6673 224.851 71.2846 224.944 70.9486 225.131C70.622 225.318 70.3606 225.588 70.1646 225.943C69.9686 226.288 69.8706 226.704 69.8706 227.189C69.8706 227.665 69.9686 228.08 70.1646 228.435C70.3606 228.79 70.622 229.06 70.9486 229.247C71.2846 229.434 71.6626 229.527 72.0826 229.527ZM81.9881 223.367C82.5854 223.367 83.1174 223.484 83.5841 223.717C84.0601 223.95 84.4334 224.31 84.7041 224.795C84.9747 225.271 85.1101 225.887 85.1101 226.643V230.927H83.3601V226.867C83.3601 226.204 83.2014 225.71 82.8841 225.383C82.5761 225.056 82.1421 224.893 81.5821 224.893C81.1714 224.893 80.8074 224.977 80.4901 225.145C80.1727 225.313 79.9254 225.565 79.7481 225.901C79.5801 226.228 79.4961 226.643 79.4961 227.147V230.927H77.7461V223.451H79.4121V225.467L79.1181 224.851C79.3794 224.375 79.7574 224.011 80.2521 223.759C80.7561 223.498 81.3347 223.367 81.9881 223.367Z" fill="#333333"/>
</g>
<rect x="15" y="203.076" width="89.1101" height="46" rx="3" stroke="black" stroke-width="2"/>
</g>
<g clip-path="url(#clip22_285_6654)">
<g clip-path="url(#clip23_285_6654)">
<rect x="14" y="104.076" width="91.1101" height="48" rx="4" fill="#0A2D82"/>
<path d="M34 132.927V123.127H38.592C39.768 123.127 40.664 123.36 41.28 123.827C41.896 124.284 42.204 124.9 42.204 125.675C42.204 126.198 42.0827 126.646 41.84 127.019C41.5973 127.383 41.2707 127.668 40.86 127.873C40.4587 128.069 40.02 128.167 39.544 128.167L39.796 127.663C40.3467 127.663 40.8413 127.766 41.28 127.971C41.7187 128.167 42.064 128.456 42.316 128.839C42.5773 129.222 42.708 129.698 42.708 130.267C42.708 131.107 42.386 131.76 41.742 132.227C41.098 132.694 40.1413 132.927 38.872 132.927H34ZM35.82 131.499H38.76C39.4413 131.499 39.964 131.387 40.328 131.163C40.692 130.939 40.874 130.58 40.874 130.085C40.874 129.6 40.692 129.245 40.328 129.021C39.964 128.788 39.4413 128.671 38.76 128.671H35.68V127.257H38.396C39.0307 127.257 39.516 127.145 39.852 126.921C40.1973 126.697 40.37 126.361 40.37 125.913C40.37 125.456 40.1973 125.115 39.852 124.891C39.516 124.667 39.0307 124.555 38.396 124.555H35.82V131.499ZM47.8424 133.025C47.0771 133.025 46.3957 132.862 45.7984 132.535C45.2011 132.199 44.7297 131.742 44.3844 131.163C44.0391 130.584 43.8664 129.926 43.8664 129.189C43.8664 128.442 44.0391 127.784 44.3844 127.215C44.7297 126.636 45.2011 126.184 45.7984 125.857C46.3957 125.53 47.0771 125.367 47.8424 125.367C48.6171 125.367 49.3031 125.53 49.9004 125.857C50.5071 126.184 50.9784 126.632 51.3144 127.201C51.6597 127.77 51.8324 128.433 51.8324 129.189C51.8324 129.926 51.6597 130.584 51.3144 131.163C50.9784 131.742 50.5071 132.199 49.9004 132.535C49.3031 132.862 48.6171 133.025 47.8424 133.025ZM47.8424 131.527C48.2717 131.527 48.6544 131.434 48.9904 131.247C49.3264 131.06 49.5877 130.79 49.7744 130.435C49.9704 130.08 50.0684 129.665 50.0684 129.189C50.0684 128.704 49.9704 128.288 49.7744 127.943C49.5877 127.588 49.3264 127.318 48.9904 127.131C48.6544 126.944 48.2764 126.851 47.8564 126.851C47.4271 126.851 47.0444 126.944 46.7084 127.131C46.3817 127.318 46.1204 127.588 45.9244 127.943C45.7284 128.288 45.6304 128.704 45.6304 129.189C45.6304 129.665 45.7284 130.08 45.9244 130.435C46.1204 130.79 46.3817 131.06 46.7084 131.247C47.0444 131.434 47.4224 131.527 47.8424 131.527ZM56.6698 133.025C56.0352 133.025 55.4752 132.908 54.9898 132.675C54.5045 132.432 54.1265 132.068 53.8558 131.583C53.5852 131.088 53.4498 130.468 53.4498 129.721V125.451H55.1998V129.483C55.1998 130.155 55.3492 130.659 55.6478 130.995C55.9558 131.322 56.3898 131.485 56.9498 131.485C57.3605 131.485 57.7152 131.401 58.0138 131.233C58.3218 131.065 58.5598 130.813 58.7278 130.477C58.9052 130.141 58.9938 129.726 58.9938 129.231V125.451H60.7438V132.927H59.0778V130.911L59.3718 131.527C59.1198 132.012 58.7512 132.386 58.2658 132.647C57.7805 132.899 57.2485 133.025 56.6698 133.025ZM65.8491 133.025C65.0278 133.025 64.3931 132.815 63.9451 132.395C63.4971 131.966 63.2731 131.336 63.2731 130.505V123.799H65.0231V130.463C65.0231 130.818 65.1118 131.093 65.2891 131.289C65.4758 131.485 65.7325 131.583 66.0591 131.583C66.4511 131.583 66.7778 131.48 67.0391 131.275L67.5291 132.521C67.3238 132.689 67.0718 132.815 66.7731 132.899C66.4745 132.983 66.1665 133.025 65.8491 133.025ZM62.0411 126.907V125.507H67.0251V126.907H62.0411ZM72.0826 133.025C71.3173 133.025 70.636 132.862 70.0386 132.535C69.4413 132.199 68.97 131.742 68.6246 131.163C68.2793 130.584 68.1066 129.926 68.1066 129.189C68.1066 128.442 68.2793 127.784 68.6246 127.215C68.97 126.636 69.4413 126.184 70.0386 125.857C70.636 125.53 71.3173 125.367 72.0826 125.367C72.8573 125.367 73.5433 125.53 74.1406 125.857C74.7473 126.184 75.2186 126.632 75.5546 127.201C75.9 127.77 76.0726 128.433 76.0726 129.189C76.0726 129.926 75.9 130.584 75.5546 131.163C75.2186 131.742 74.7473 132.199 74.1406 132.535C73.5433 132.862 72.8573 133.025 72.0826 133.025ZM72.0826 131.527C72.512 131.527 72.8946 131.434 73.2306 131.247C73.5666 131.06 73.828 130.79 74.0146 130.435C74.2106 130.08 74.3086 129.665 74.3086 129.189C74.3086 128.704 74.2106 128.288 74.0146 127.943C73.828 127.588 73.5666 127.318 73.2306 127.131C72.8946 126.944 72.5166 126.851 72.0966 126.851C71.6673 126.851 71.2846 126.944 70.9486 127.131C70.622 127.318 70.3606 127.588 70.1646 127.943C69.9686 128.288 69.8706 128.704 69.8706 129.189C69.8706 129.665 69.9686 130.08 70.1646 130.435C70.3606 130.79 70.622 131.06 70.9486 131.247C71.2846 131.434 71.6626 131.527 72.0826 131.527ZM81.9881 125.367C82.5854 125.367 83.1174 125.484 83.5841 125.717C84.0601 125.95 84.4334 126.31 84.7041 126.795C84.9747 127.271 85.1101 127.887 85.1101 128.643V132.927H83.3601V128.867C83.3601 128.204 83.2014 127.71 82.8841 127.383C82.5761 127.056 82.1421 126.893 81.5821 126.893C81.1714 126.893 80.8074 126.977 80.4901 127.145C80.1727 127.313 79.9254 127.565 79.7481 127.901C79.5801 128.228 79.4961 128.643 79.4961 129.147V132.927H77.7461V125.451H79.4121V127.467L79.1181 126.851C79.3794 126.375 79.7574 126.011 80.2521 125.759C80.7561 125.498 81.3347 125.367 81.9881 125.367Z" fill="white"/>
</g>
</g>
<rect y="0.0761719" width="120" height="63" rx="6" fill="#783528"/>
<path d="M40.0219 36.7362L37.7019 38.0762H29.1219V24.0762H37.7019L40.0219 25.4162V36.7362ZM31.9219 26.4762V35.6762H37.2219V26.4762H31.9219ZM51.5188 35.7362V38.0762H45.5388L43.2188 36.7362V29.3162L45.5388 27.9762H49.1988L51.5188 29.3162V34.0962H45.9588V35.7362H51.5188ZM45.9588 30.3162V32.0362H48.7788V30.3162H45.9588ZM53.7273 30.4162V28.0762H55.5673V24.8162L57.8873 23.4762H60.5073V25.8162H58.3073V28.0762H60.5073V30.4162H58.3073V38.0762H55.5673V30.4162H53.7273ZM65.0509 34.1362V35.8762H67.8709V34.1362H65.0509ZM64.6309 38.1762L62.3109 36.8362V33.3762L64.6309 32.0362H67.8709V30.4162H63.3109V28.0762H68.2909L70.6109 29.4162V38.1762H69.2909L67.8709 37.3562L66.4509 38.1762H64.6309ZM73.6094 36.8362V28.0762H76.3494V35.8362H79.7694V28.0762H82.5094V38.1762H80.2494L79.7694 37.3562L78.3494 38.1762H75.9294L73.6094 36.8362ZM84.7039 30.4162V28.0762H86.5439V26.3962L89.2839 24.8162V28.0762H91.4839V30.4162H89.2839V35.7362H91.4839V38.0762H88.8639L86.5439 36.7362V30.4162H84.7039Z" fill="white"/>
<rect x="140" y="0.0761719" width="120" height="63" rx="6" fill="#783528"/>
<path d="M176.189 32.0762V38.0762H173.389V24.0762H176.189V29.6762H181.689V24.0762H184.489V38.0762H181.689V32.0762H176.189ZM196.582 36.8362L194.262 38.1762H190.002L187.682 36.8362V29.3162L190.002 27.9762H194.262L196.582 29.3162V36.8362ZM190.422 30.3162V35.8362H193.842V30.3162H190.422ZM201.116 28.0762L203.416 34.6362H203.456L205.776 28.0762H208.516L204.816 38.0762H202.076L198.376 28.0762H201.116ZM218.618 35.7362V38.0762H212.638L210.318 36.7362V29.3162L212.638 27.9762H216.298L218.618 29.3162V34.0962H213.058V35.7362H218.618ZM213.058 30.3162V32.0362H215.878V30.3162H213.058ZM227.807 30.4162H224.367V38.0762H221.627V28.0762H223.887L224.367 28.8962L225.787 28.0762H227.807V30.4162Z" fill="white"/>
<rect x="280" y="0.0761719" width="120" height="63" rx="6" fill="#783528"/>
<path d="M314.786 38.0762V24.0762H322.166L324.486 25.4162V31.6562L322.166 32.9962H317.586V38.0762H314.786ZM317.586 26.4762V30.5962H321.686V26.4762H317.586ZM333.266 30.4162H329.826V38.0762H327.086V28.0762H329.346L329.826 28.8962L331.246 28.0762H333.266V30.4162ZM343.57 35.7362V38.0762H337.59L335.27 36.7362V29.3162L337.59 27.9762H341.25L343.57 29.3162V34.0962H338.01V35.7362H343.57ZM338.01 30.3162V32.0362H340.83V30.3162H338.01ZM354.498 33.1562V36.7362L352.178 38.0762H346.578V35.7362H351.758V34.1962H348.898L346.578 32.8562V29.4162L348.898 28.0762H354.298V30.4162H349.318V31.8162H352.178L354.498 33.1562ZM365.416 33.1562V36.7362L363.096 38.0762H357.496V35.7362H362.676V34.1962H359.816L357.496 32.8562V29.4162L359.816 28.0762H365.216V30.4162H360.236V31.8162H363.096L365.416 33.1562Z" fill="white"/>
<rect x="420" y="0.0761719" width="120" height="63" rx="6" fill="#783528"/>
<path d="M450.637 36.7362L448.317 38.0762H439.737V24.0762H448.317L450.637 25.4162V36.7362ZM442.537 26.4762V35.6762H447.837V26.4762H442.537ZM456.574 28.0762V38.0762H453.834V28.0762H456.574ZM453.734 26.2162V23.4762H456.674V26.2162H453.734ZM467.496 33.1562V36.7362L465.176 38.0762H459.576V35.7362H464.756V34.1962H461.896L459.576 32.8562V29.4162L461.896 28.0762H467.296V30.4162H462.316V31.8162H465.176L467.496 33.1562ZM472.834 34.1362V35.8762H475.654V34.1362H472.834ZM472.414 38.1762L470.094 36.8362V33.3762L472.414 32.0362H475.654V30.4162H471.094V28.0762H476.074L478.394 29.4162V38.1762H477.074L475.654 37.3562L474.234 38.1762H472.414ZM485.553 27.9762H488.173L490.493 29.3162V36.8362L488.173 38.1762H485.553L484.133 37.3562L482.713 38.1762H481.393V23.4762H484.133V28.7962L485.553 27.9762ZM484.133 30.3162V35.8362H487.753V30.3162H484.133ZM495.822 38.0762L493.502 36.7362V23.4762H496.242V35.7362H498.242V38.0762H495.822ZM508.345 35.7362V38.0762H502.365L500.045 36.7362V29.3162L502.365 27.9762H506.025L508.345 29.3162V34.0962H502.785V35.7362H508.345ZM502.785 30.3162V32.0362H505.605V30.3162H502.785ZM513.674 27.9762H516.294L517.714 28.7962V23.4762H520.454V38.1762H518.194L517.714 37.3562L516.294 38.1762H513.674L511.354 36.8362V29.3162L513.674 27.9762ZM517.714 35.8362V30.3162H514.094V35.8362H517.714Z" fill="white"/>
<defs>
<clipPath id="clip0_285_6654">
<rect x="14" y="300.076" width="91.1101" height="49" rx="3" fill="white"/>
</clipPath>
<clipPath id="clip1_285_6654">
<rect x="14" y="300.076" width="91.1101" height="48" rx="4" fill="white"/>
</clipPath>
<clipPath id="clip2_285_6654">
<rect x="154.11" y="300.076" width="91.1101" height="49" rx="3" fill="white"/>
</clipPath>
<clipPath id="clip3_285_6654">
<rect x="154.11" y="300.076" width="91.1101" height="48" rx="4" fill="white"/>
</clipPath>
<clipPath id="clip4_285_6654">
<path d="M294.22 303.076C294.22 301.419 295.563 300.076 297.22 300.076H382.33C383.987 300.076 385.33 301.419 385.33 303.076V346.076C385.33 347.733 383.987 349.076 382.33 349.076H297.22C295.563 349.076 294.22 347.733 294.22 346.076V303.076Z" fill="white"/>
</clipPath>
<clipPath id="clip5_285_6654">
<rect x="294.22" y="301.076" width="91.1101" height="48" rx="4" fill="white"/>
</clipPath>
<clipPath id="clip6_285_6654">
<rect x="434.33" y="300.076" width="91.1101" height="49" rx="3" fill="white"/>
</clipPath>
<clipPath id="clip7_285_6654">
<rect x="434.33" y="300.076" width="91.1101" height="48" rx="4" fill="white"/>
</clipPath>
<clipPath id="clip8_285_6654">
<rect x="434" y="202.076" width="91.1101" height="49" rx="3" fill="white"/>
</clipPath>
<clipPath id="clip9_285_6654">
<rect x="434" y="202.076" width="91.1101" height="48" rx="4" fill="white"/>
</clipPath>
<clipPath id="clip10_285_6654">
<rect x="434" y="104.076" width="91.1101" height="49" rx="3" fill="white"/>
</clipPath>
<clipPath id="clip11_285_6654">
<rect x="434" y="104.076" width="91.1101" height="48" rx="4" fill="white"/>
</clipPath>
<clipPath id="clip12_285_6654">
<rect x="154" y="202.076" width="91.1101" height="49" rx="3" fill="white"/>
</clipPath>
<clipPath id="clip13_285_6654">
<rect x="154" y="202.076" width="91.1101" height="48" rx="4" fill="white"/>
</clipPath>
<clipPath id="clip14_285_6654">
<path d="M294 205.076C294 203.419 295.343 202.076 297 202.076H382.11C383.767 202.076 385.11 203.419 385.11 205.076V248.076C385.11 249.733 383.767 251.076 382.11 251.076H297C295.343 251.076 294 249.733 294 248.076V205.076Z" fill="white"/>
</clipPath>
<clipPath id="clip15_285_6654">
<rect x="294" y="203.076" width="91.1101" height="48" rx="4" fill="white"/>
</clipPath>
<clipPath id="clip16_285_6654">
<path d="M294 107.076C294 105.419 295.343 104.076 297 104.076H382.11C383.767 104.076 385.11 105.419 385.11 107.076V150.076C385.11 151.733 383.767 153.076 382.11 153.076H297C295.343 153.076 294 151.733 294 150.076V107.076Z" fill="white"/>
</clipPath>
<clipPath id="clip17_285_6654">
<rect x="294" y="105.076" width="91.1101" height="48" rx="4" fill="white"/>
</clipPath>
<clipPath id="clip18_285_6654">
<rect x="154" y="104.076" width="91.1101" height="49" rx="3" fill="white"/>
</clipPath>
<clipPath id="clip19_285_6654">
<rect x="154" y="104.076" width="91.1101" height="48" rx="4" fill="white"/>
</clipPath>
<clipPath id="clip20_285_6654">
<rect x="14" y="202.076" width="91.1101" height="49" rx="3" fill="white"/>
</clipPath>
<clipPath id="clip21_285_6654">
<rect x="14" y="202.076" width="91.1101" height="48" rx="4" fill="white"/>
</clipPath>
<clipPath id="clip22_285_6654">
<rect x="14" y="104.076" width="91.1101" height="49" rx="3" fill="white"/>
</clipPath>
<clipPath id="clip23_285_6654">
<rect x="14" y="104.076" width="91.1101" height="48" rx="4" fill="white"/>
</clipPath>
</defs>
</svg>
